<svg xmlns="http://www.w3.org/2000/svg" version="1.1" width="40px" height="40px" viewBox="0 0 1024 1460"><defs><radialGradient id="a" cx="12.1%" cy="25.1%" r="102.3%" fx="12.1%" fy="25.1%"><stop stop-color="#8E77F5" offset="0%"/><stop stop-color="#71D5F3" offset="22.1%"/><stop stop-color="#7DACF3" offset="32.3%"/><stop stop-color="#9AE0F5" offset="48.1%"/><stop stop-color="#A8EACF" offset="63.8%"/><stop stop-color="#3EDC9A" offset="80%"/><stop stop-color="#A8EACF" offset="100%"/></radialGradient><filter id="turb"><feTurbulence baseFrequency="0.7"></feTurbulence><feDisplacementMap in2="turbulence" in="SourceGraphic" scale="100" xChannelSelector="R" yChannelSelector="G"/></filter></defs><path fill="url(#a)" fill-rule="evenodd" fill-opacity="0.4" d="M529.2 427.6S552 678 618.7 569.3c67-108.7-66.7-346.8 50-276.4C785 363 776.4 628 875 577.2 973.6 527 694.4 169.7 800 206c105.5 36.5 273.6 451 304 225.5C1134.2 206 757 67 945.2 36.5c188.2-30.7 356 470 356 579.7 0 109.8 73.8 936.3-73 684.7-146.7-252-363-614.8-380.8-360.7-17.7 254 331.6 809.8 95.2 483.4-236.5-326.5-479.5-611.4-459-400.5 20.7 210.8-273.3-440.4-163-585.5C431.4 293 548.3-246 516 23.5c-32 269.5 13.2 404.2 13.2 404.2z" filter="url(#turb)" transform="translate(-296)"/></svg>
