<svg xmlns="http://www.w3.org/2000/svg" width="1024" height="1460" viewBox="0 0 1024 1460">
  <defs>
    <radialGradient id="a" cx="12.12%" cy="25.15%" r="102.33%" fx="12.12%" fy="25.15%" gradientTransform="scale(1 .65016) rotate(46.325 -.037 .32)">
      <stop stop-color="#8E77F5" offset="0%"/>
      <stop stop-color="#71D5F3" offset="22.093%"/>
      <stop stop-color="#7DACF3" offset="32.269%"/>
      <stop stop-color="#9AE0F5" offset="48.052%"/>
      <stop stop-color="#A8EACF" offset="63.839%"/>
      <stop stop-color="#3EDC9A" offset="79.969%"/>
      <stop stop-color="#A8EACF" offset="100%"/>
    </radialGradient>
    <filter id="b" width="100%" height="100%" x="0%" y="0%" filterUnits="objectBoundingBox">
      <feGaussianBlur in="SourceGraphic"/>
    </filter>
  </defs>
  <path fill="url(#a)" fill-rule="evenodd" d="M529.159036,427.622177 C529.159036,427.622177 551.854659,677.935415 618.718008,569.291981 C685.581357,460.648547 551.989111,222.494062 668.58653,292.894222 C785.183948,363.294382 776.539905,628.304878 875.159724,577.636223 C973.779543,526.967568 694.603136,169.806134 800.148539,206.212272 C905.693942,242.61841 1073.84054,657.053774 1104.1193,431.633023 C1134.39806,206.212272 757.298449,67.2490879 945.424727,36.5647154 C1133.551,5.8803429 1301.45559,506.478771 1301.45559,616.272168 C1301.45559,726.065564 1375.24251,1552.59429 1228.44701,1300.96281 C1081.65151,1049.33132 865.411159,686.50404 847.649952,940.575693 C829.888745,1194.64735 1179.22386,1750.44399 942.775267,1424.03687 C706.326674,1097.62975 463.303342,812.747514 483.914947,1023.55532 C504.526553,1234.36313 210.451514,583.245798 320.890997,438.07001 C431.33048,292.894222 548.156468,-246.185887 516.035707,23.3541674 C483.914947,292.894222 529.159036,427.622177 529.159036,427.622177 Z" filter="url(#b)" transform="translate(-296)"/>
</svg>
