<?xml version="1.0" standalone="no"?>
<!DOCTYPE svg PUBLIC "-//W3C//DTD SVG 1.1//EN" "http://www.w3.org/Graphics/SVG/1.1/DTD/svg11.dtd">
<svg xmlns="http://www.w3.org/2000/svg"><metadata>This SVG WebFont was generated by YouWorkForThem.
Copyright Â© 2016 by Justin Meyers. All rights reserved.</metadata><defs><font horiz-adv-x="1167" id="ywftsvg"><font-face ascent="1638" bbox="-43 -451 2212 2099" cap-height="1382" descent="-410" font-family="" font-stretch="normal" font-weight="400" panose-1="0 0 5 0 0 0 0 0 0 0" underline-position="0" underline-thickness="0" unicode-range="U+0020-FB02" units-per-em="2048" x-height="1024"/><missing-glyph d="M0 0v1434h1024v-1434h-1024zM512 809l348 522h-696zM573 717l349 -522v1044zM164 102h696l-348 523zM102 1239v-1044l349 522z" horiz-adv-x="1024"/><glyph d="M727 1300q-100 0 -173 -76.5t-73 -179.5v-69h543v-154h-543v-821h-164v821h-215v154h215v69q0 168 120 289t290 121q106 0 198.5 -52t149.5 -140l-157 -58q-76 96 -191 96zM1751 1198q-41 0 -71.5 31t-30.5 71q0 43 30.5 73t71.5 30q43 0 72.5 -30t29.5 -73 q0 -41 -29.5 -71.5t-72.5 -30.5zM2212 154v-154h-922v154h379v716h-285l56 154h393v-870h379z" glyph-name="uniFB01" horiz-adv-x="2334" unicode="fi"/><glyph d="M727 1300q-100 0 -173 -76.5t-73 -179.5v-69h543v-154h-543v-821h-164v821h-215v154h215v69q0 168 120 289t290 121q106 0 198.5 -52t149.5 -140l-157 -58q-76 96 -191 96zM2052 229l158 -57q-57 -88 -149.5 -140t-198.5 -52q-168 0 -288 119.5t-120 289.5v840h-162 l56 153h270v-993q0 -102 71.5 -179t172.5 -77q114 0 190 96z" glyph-name="uniFB02" horiz-adv-x="2334" unicode="fl"/><glyph d="M0 0v1434h1024v-1434h-1024zM512 809l348 522h-696zM573 717l349 -522v1044zM164 102h696l-348 523zM102 1239v-1044l349 522z" glyph-name=".notdef" horiz-adv-x="1024"/><glyph glyph-name="glyph1" horiz-adv-x="0"/><glyph glyph-name="glyph2" horiz-adv-x="681"/><glyph glyph-name="space" unicode=" "/><glyph d="M666 410h-164v964l164 60v-1024zM584 184q43 0 72.5 -29.5t29.5 -72.5q0 -41 -29.5 -71.5t-72.5 -30.5q-41 0 -72 30.5t-31 71.5q0 43 31 72.5t72 29.5z" glyph-name="exclam" unicode="!"/><glyph d="M492 1024h-164v358h164v-358zM840 1024h-164v358h164v-358z" glyph-name="quotedbl" unicode="&quot;"/><glyph d="M963 1012h114v-154h-170l-121 -336h189v-151h-244l-135 -371h-176l135 371h-172l-135 -371h-176l135 371h-94v151h149l121 336h-168v154h223l135 370h177l-136 -370h172l136 370h176zM733 858h-172l-123 -336h172z" glyph-name="numbersign" unicode="#"/><glyph d="M1032 389q0 -172 -107.5 -277.5t-279.5 -127.5v-148h-164v150q-125 18 -218 86.5t-128 169.5l154 55q23 -74 96.5 -119t175.5 -45q133 0 220 66.5t87 189.5q0 72 -40 120t-103 73.5t-140 46t-153 48.5t-139.5 66.5t-103 112.5t-39.5 178q0 137 92 234.5t239 126.5v131 h164v-127q117 -18 202 -94t122 -191l-152 -55q-18 86 -78.5 138t-156.5 52q-121 0 -195 -65.5t-74 -149.5q0 -80 53.5 -131t133.5 -73.5t173 -54.5t173 -67.5t133 -117.5t53 -201z" glyph-name="dollar" unicode="$"/><glyph d="M1069 1403l-856 -1485l-137 82l858 1485zM301 1372q106 0 182 -75.5t76 -182t-75.5 -180.5t-182.5 -74q-104 0 -180 75t-76 179q0 106 76 182t180 76zM303 1239q-45 0 -77.5 -38t-32.5 -85t32.5 -85t77.5 -38q43 0 77 38t34 85q0 45 -34 84t-77 39zM864 553 q106 0 182 -76t76 -182.5t-75.5 -180t-182.5 -73.5q-104 0 -179 73.5t-75 180t75 182.5t179 76zM866 420q-45 0 -77.5 -38t-32.5 -85t32.5 -85t77.5 -38q43 0 77 38t34 85q0 45 -34 84t-77 39z" glyph-name="percent" unicode="%"/><glyph d="M1038 459l-131 -49q0 -182 -107.5 -306t-281.5 -124t-281.5 123.5t-107.5 306.5q0 109 50 204t132 154q-139 119 -139 285q0 162 102.5 264t243.5 102q104 0 195.5 -67.5t128.5 -173.5l-154 -56q-20 59 -69.5 101.5t-100.5 42.5q-74 0 -128 -58.5t-54 -154.5 q0 -88 50 -150.5t132 -62.5h64v-154h-64q-106 0 -165.5 -80t-59.5 -196.5t59.5 -196.5t166 -80t165.5 80t59 197q0 51 -12 100l254 92z" glyph-name="ampersand" unicode="&amp;"/><glyph d="M666 1024h-164v358h164v-358z" glyph-name="quotesingle" unicode="'"/><glyph d="M874 1581l37 -151q-213 -86 -351 -317.5t-138 -489.5t137 -489.5t348 -321.5l-37 -150q-279 111 -445.5 372t-166.5 588.5t167.5 588.5t448.5 370z" glyph-name="parenleft" unicode="("/><glyph d="M279 1430l30 153q281 -106 449 -367.5t168 -591t-167 -591.5t-448 -371l-69 154q236 86 378 315t142 494q0 260 -136 489.5t-347 315.5z" glyph-name="parenright" unicode=")"/><glyph d="M788 1204h-143l103 -102l-37 -37l-103 102v-143h-51v141l-100 -100l-37 37l102 102h-143v51h141l-100 101l37 37l100 -101v142h51v-144l103 103l37 -37l-101 -101h141v-51z" glyph-name="asterisk" unicode="*"/><glyph d="M1018 453h-352v-375h-164v375h-352v153h352v340h164v-340h352v-153z" glyph-name="plus" unicode="+"/><glyph d="M584 184q43 0 72.5 -30.5t29.5 -71.5q0 -27 -6 -45l-70 -189l-78 29l37 103q-37 4 -62.5 33.5t-25.5 68.5q0 41 31 71.5t72 30.5z" glyph-name="comma" unicode=","/><glyph d="M891 436h-615v154h615v-154z" glyph-name="hyphen" unicode="-"/><glyph d="M584 184q43 0 72.5 -29.5t29.5 -72.5t-29.5 -72.5t-72.5 -29.5q-41 0 -72 29.5t-31 72.5t31 72.5t72 29.5z" glyph-name="period" unicode="."/><glyph d="M401 0h-176l502 1382h176z" glyph-name="slash" unicode="/"/><glyph d="M608 1403q240 0 369 -199.5t129 -511t-129 -512t-369 -200.5q-242 0 -374 201.5t-132 510.5t132 510t374 201zM608 1249q-139 0 -220 -105.5t-107 -271.5l581 213q-86 164 -254 164zM608 133q92 0 160 49t104.5 133t53 178.5t16.5 198.5q0 133 -27 248l-649 -238v-10 q0 -104 17.5 -198.5t55.5 -178.5t107.5 -133t161.5 -49z" glyph-name="zero" unicode="0"/><glyph d="M1038 154v-154h-909v154h420v1075h-236l-55 153h455v-1228h325z" glyph-name="one" unicode="1"/><glyph d="M1038 973q0 -102 -38.5 -179t-102 -124t-139.5 -85t-153 -75t-141.5 -81t-107.5 -113.5t-47 -161.5h709v-156h-868v156q0 115 39.5 203.5t104 143t142.5 97.5t156 79t142.5 76t104.5 100t40 140q0 121 -83 188.5t-202 67.5q-236 0 -311 -213l-154 58q49 143 168 226 t297 83q186 0 315 -116.5t129 -313.5z" glyph-name="two" unicode="2"/><glyph d="M571.5 1419q151.5 0 259 -107.5t107.5 -258.5q0 -162 -150 -283q94 -59 153.5 -155.5t59.5 -204.5q0 -178 -125.5 -304t-304.5 -126q-137 0 -248.5 78.5t-156.5 205.5l153 55q29 -82 97.5 -134t154.5 -52q111 0 189 83t78 193.5t-78 193.5t-189 83h-63v154h63 q84 0 143.5 63.5t59.5 149.5t-59.5 149.5t-143.5 63.5t-143 -63.5t-59 -149.5h-164q0 152 107.5 259t259 107z" glyph-name="three" unicode="3"/><glyph d="M1004 1382v-1382h-164v631h-676v741l164 62v-650h512v539z" glyph-name="four" unicode="4"/><glyph d="M571 922q193 0 322 -137.5t129 -334t-129 -333.5t-322 -137q-152 0 -267.5 88t-158.5 227l154 57q27 -96 100.5 -157.5t171.5 -61.5q125 0 206 93t81 224.5t-81 224.5t-206 93q-141 0 -237 -117l-164 54l82 677h737v-153h-573l-51 -355q97 48 206 48z" glyph-name="five" unicode="5"/><glyph d="M764 1346l-248 -428q45 4 68 4q193 0 321.5 -137.5t128.5 -334t-129 -333.5t-321.5 -137t-321.5 137t-129 334q0 160 86 280l387 672zM584 768q-125 0 -206 -93t-81 -224.5t81 -224.5t206 -93t205.5 93t80.5 224.5t-80.5 224.5t-205.5 93z" glyph-name="six" unicode="6"/><glyph d="M1032 1382v-153l-723 -1249l-153 55l688 1194h-709v153h897z" glyph-name="seven" unicode="7"/><glyph d="M817 770q96 -59 156.5 -152.5t60.5 -207.5q0 -188 -133 -309t-317.5 -121t-317.5 120.5t-133 309.5q0 115 60.5 208t156.5 152q-154 113 -153 283q0 162 114.5 264t272 102t272.5 -102.5t115 -263.5q0 -170 -154 -283zM360 1052.5q0 -96.5 67 -154.5t157 -58t156.5 58 t66.5 154.5t-66.5 155t-156.5 58.5t-157 -58.5t-67 -155zM583.5 133q114.5 0 200.5 78t86 198.5t-86 198.5t-200.5 78t-200.5 -78t-86 -198.5t86 -198.5t200.5 -78z" glyph-name="eight" unicode="8"/><glyph d="M444 37l248 428q-45 -4 -67 -4q-193 0 -322 137t-129 333.5t129 334t321.5 137.5t321.5 -137.5t129 -333.5q0 -160 -86 -281l-387 -671zM625 614q125 0 205.5 93.5t80.5 224.5t-80.5 224t-205.5 93t-206 -93t-81 -224t81 -224.5t206 -93.5z" glyph-name="nine" unicode="9"/><glyph d="M584 807q43 0 72.5 -29.5t29.5 -72.5q0 -41 -29.5 -72t-72.5 -31q-41 0 -72 31t-31 72q0 43 31 72.5t72 29.5zM584 184q43 0 72.5 -29.5t29.5 -72.5t-29.5 -72.5t-72.5 -29.5q-41 0 -72 29.5t-31 72.5t31 72.5t72 29.5z" glyph-name="colon" unicode=":"/><glyph d="M584 807q43 0 72.5 -29.5t29.5 -72.5q0 -41 -29.5 -72t-72.5 -31q-41 0 -72 31t-31 72q0 43 31 72.5t72 29.5zM584 182q43 0 72.5 -29.5t29.5 -72.5q0 -31 -8 -43l-68 -187l-78 27l37 103q-37 4 -62.5 32.5t-25.5 67.5q0 43 31 72.5t72 29.5z" glyph-name="semicolon" unicode=";"/><glyph d="M913 782l-594 -268l594 -276v-209l-811 377v217l811 376v-217z" glyph-name="less" unicode="&lt;"/><glyph d="M1018 705h-868v153h868v-153zM1018 166h-868v153h868v-153z" glyph-name="equal" unicode="="/><glyph d="M989 621v-218l-811 -376v172l676 313l-676 322v163z" glyph-name="greater" unicode=">"/><glyph d="M559 1403q190 0 309 -81t119 -226q0 -102 -65.5 -170t-158.5 -97.5t-186.5 -52t-159 -56.5t-65.5 -89q0 -61 58.5 -100t163 -39t150.5 32.5t69 98.5l153 -56q-84 -229 -373 -229q-174 0 -279.5 83t-105.5 224q0 94 65.5 156.5t159 92.5t186.5 52.5t158.5 57t65.5 90.5 q0 57 -56 106t-208 49q-215 0 -274 -172l-154 58q45 123 154.5 195.5t273.5 72.5zM573 184q43 0 73 -29.5t30 -72.5t-30 -72.5t-73 -29.5q-41 0 -71.5 29.5t-30.5 72.5t30.5 72.5t71.5 29.5z" glyph-name="question" unicode="?"/><glyph d="M881 0v33q-66 -53 -164 -53q-150 0 -239 105t-89 263t89 263.5t239 105.5q88 0 151 -43q-27 193 -100.5 288t-179.5 95q-139 0 -220 -160t-81 -504q0 -346 81 -506.5t220 -160.5q94 0 138 30.5t89 112.5l72 -172q-63 -70 -124 -97.5t-175 -27.5q-225 0 -345 207t-120 614 q0 406 119.5 611.5t345.5 205.5q219 0 337.5 -195.5t118.5 -559.5v-455h-163zM717 133q80 0 122 61.5t42 153.5t-42 153.5t-122 61.5q-82 0 -123 -61.5t-41 -153.5t41 -153.5t123 -61.5z" glyph-name="at" unicode="@"/><glyph d="M809 436h-451l-133 -436h-180l449 1382h180l448 -1382h-180zM762 590l-178 586l-178 -586h356z" glyph-name="A" unicode="A"/><glyph d="M840 721q184 -133 184 -324q0 -164 -116.5 -280.5t-280.5 -116.5h-484v1382h484q154 0 262 -108.5t108 -261.5q1 -170 -157 -291zM307 795h320q86 0 146.5 65.5t60.5 151.5t-60.5 151.5t-146.5 65.5h-320v-434zM307 154h320q96 0 164.5 73.5t68.5 170t-68.5 170 t-164.5 73.5h-320v-487z" glyph-name="B" unicode="B"/><glyph d="M584 1403q205 0 329.5 -145.5t159.5 -387.5l-158 -57q-18 190 -99 313t-232 123q-92 0 -161 -49t-105.5 -132t-54 -177t-17.5 -198.5t17.5 -199t54 -178.5t105.5 -133t161 -49q152 0 232.5 124t98.5 314l158 -57q-33 -242 -159 -388t-330 -146q-242 0 -372 200.5 t-130 512t130 511t372 199.5z" glyph-name="C" unicode="C"/><glyph d="M123 1382h293q291 0 470 -195.5t179 -494.5t-179 -495.5t-470 -196.5h-293v1382zM287 1229v-1075h129q209 0 347 155.5t138 383t-138 382t-347 154.5h-129z" glyph-name="D" unicode="D"/><glyph d="M1024 1229h-717v-434h565v-154h-565v-487h717v-154h-881v1382h881v-153z" glyph-name="E" unicode="E"/><glyph d="M1024 1229h-717v-434h565v-154h-565v-641h-164v1382h881v-153z" glyph-name="F" unicode="F"/><glyph d="M1118 578h-127q-33 -598 -452 -598q-215 0 -340 203.5t-125 508.5t125 508t340 203q168 0 284.5 -119t161.5 -319l-151 -56q-31 152 -105 246t-190 94q-150 0 -225.5 -167t-75.5 -390t75.5 -391t225.5 -168q86 0 144 36t88 103.5t42 138t16 167.5h-303v153h592v-153z" glyph-name="G" unicode="G"/><glyph d="M1044 1382v-1382h-163v641h-594v-641h-164v1382h164v-587h594v587h163z" glyph-name="H" unicode="H"/><glyph d="M666 1229v-1075h378v-154h-921v154h379v1075h-379v153h921v-153h-378z" glyph-name="I" unicode="I"/><glyph d="M1042 1382v-942q0 -190 -135 -325t-325 -135q-176 0 -306.5 115.5t-150.5 287.5l160 57q0 -123 87 -215t210 -92t210 92t87 215v789h-123v153h286z" glyph-name="J" unicode="J"/><glyph d="M336 588l-49 -60v-528h-164v1382h164v-596l499 596h218l-560 -667l600 -715h-217z" glyph-name="K" unicode="K"/><glyph d="M307 154h717v-154h-881v1382h164v-1228z" glyph-name="L" unicode="L"/><glyph d="M1044 0h-163v836l-209 -693h-168l-217 723v-866h-164v1382h168l297 -1028l295 1028h161v-1382z" glyph-name="M" unicode="M"/><glyph d="M1047 0h-164l-596 1065v-1065h-164v1382h164l596 -1065v1065h164v-1382z" glyph-name="N" unicode="N"/><glyph d="M588 1403q240 0 368.5 -199.5t128.5 -511t-129 -512t-368 -200.5q-242 0 -374 201.5t-132 510.5t132 510t374 201zM588 1249q-92 0 -162 -49t-107.5 -132t-55 -177t-17.5 -198.5t17.5 -199t55 -178.5t107.5 -133t162 -49t159.5 49t104.5 133t53.5 178.5t16.5 199 t-16.5 198.5t-53.5 177t-104.5 132t-159.5 49z" glyph-name="O" unicode="O"/><glyph d="M143 1382h461q174 0 297 -122.5t123 -297t-123 -297t-297 -122.5h-297v-543h-164v1382zM307 696h297q104 0 180 80t76 186.5t-75.5 186.5t-180.5 80h-297v-533z" glyph-name="P" unicode="P"/><glyph d="M588 1403q240 0 368.5 -199.5t128.5 -511.5q0 -354 -155 -549v-280h-164v151q-82 -35 -178 -34q-242 0 -374 201.5t-132 510.5t132 510t374 201zM588 1249q-92 0 -162 -49t-107.5 -132t-55 -177t-17.5 -198.5t17.5 -199t55 -178.5t107.5 -133t162 -49q102 0 178 66v71 q0 55 -39 99.5t-94 44.5q-43 0 -77 -28t-48 -71l-154 58q31 86 104.5 140t153.5 54q102 0 173 -47t102 -129q35 154 35 301q0 104 -16.5 198.5t-53.5 177.5t-104.5 132t-159.5 49z" glyph-name="Q" unicode="Q"/><glyph d="M1024 963q0 -145 -90 -259t-229 -149l319 -555h-190l-314 543h-213v-543h-164v1382h461q174 0 297 -122.5t123 -296.5zM307 696h297q104 0 180 80t76 186.5t-75.5 186.5t-180.5 80h-297v-533z" glyph-name="R" unicode="R"/><glyph d="M313 1034q0 -80 53.5 -131t133.5 -73.5t173 -54.5t173 -67.5t133 -117.5t53 -201q0 -195 -133 -302t-338 -107q-152 0 -268.5 72.5t-157.5 189.5l154 55q23 -74 96.5 -119t175.5 -45q133 0 220 66.5t87 189.5q0 72 -40 120t-103 73.5t-140 46t-153 48.5t-139.5 66.5 t-103 112.5t-39.5 178q0 162 124.5 265.5t307.5 103.5q139 0 241.5 -79t145.5 -210l-152 -55q-18 86 -78.5 138t-156.5 52q-121 0 -195 -65.5t-74 -149.5z" glyph-name="S" unicode="S"/><glyph d="M1055 1229h-389v-1229h-164v1229h-389v153h942v-153z" glyph-name="T" unicode="T"/><glyph d="M1044 1382v-942q0 -190 -135 -325t-325.5 -135t-325.5 135t-135 325v942h164v-942q0 -123 87 -215t210 -92t210 92t87 215v942h163z" glyph-name="U" unicode="U"/><glyph d="M674 0h-180l-449 1382h180l359 -1175l358 1175h180z" glyph-name="V" unicode="V"/><glyph d="M856 0h-168l-104 657l-105 -657h-170l-243 1382h170l159 -1013l107 678h164l106 -678l160 1013h168z" glyph-name="W" unicode="W"/><glyph d="M668 727l430 -727h-189l-325 573l-326 -573h-188l430 727l-389 655h188l285 -503l284 503h189z" glyph-name="X" unicode="X"/><glyph d="M1057 1382l-391 -798v-584h-164v584l-391 798h188l285 -620l284 620h189z" glyph-name="Y" unicode="Y"/><glyph d="M1063 1229l-305 -434h151v-154h-258l-342 -487h754v-154h-957v154l343 487h-187v154h293l305 434h-754v153h957v-153z" glyph-name="Z" unicode="Z"/><glyph d="M791 1427h-248v-1611h248v-154h-412v1919h412v-154z" glyph-name="bracketleft" unicode="["/><glyph d="M924 0h-176l-504 1382h176z" glyph-name="backslash" unicode="\"/><glyph d="M791 -338h-412v154h248v1614h-248l-2 153h414v-1921z" glyph-name="bracketright" unicode="]"/><glyph d="M897 819h-176l-137 408l-138 -408h-176l205 563h217z" glyph-name="asciicircum" unicode="^"/><glyph d="M891 -174h-615v154h615v-154z" glyph-name="underscore" unicode="_"/><glyph d="M748 1147h-173l-198 235h172z" glyph-name="grave" unicode="`"/><glyph d="M594 1044q195 0 317.5 -98t122.5 -270v-676h-164v72q-109 -92 -307 -92q-186 0 -308 94t-122 274t122 274.5t308 94.5q199 0 307 -92v51q0 104 -74.5 159.5t-201.5 55.5q-123 0 -193 -45l-168 61q119 137 361 137zM563 133q141 0 224 55.5t83 160t-82.5 159.5t-224.5 55 q-266 0 -266 -215t266 -215z" glyph-name="a" unicode="a"/><glyph d="M584 1044q209 0 350 -149.5t141 -382.5t-141 -382.5t-350 -149.5q-203 0 -328 141v-121h-164v1374l164 60v-531q125 141 328 141zM583.5 133q137.5 0 232.5 107.5t95 271.5t-95 271.5t-232.5 107.5t-232.5 -107.5t-95 -271.5t95 -271.5t232.5 -107.5z" glyph-name="b" unicode="b"/><glyph d="M584 1044q166 0 294 -98t175 -264l-156 -55q-31 119 -117 191.5t-196 72.5q-137 0 -232.5 -107.5t-95.5 -271.5t95 -271.5t233 -107.5q111 0 196.5 73t116.5 191l156 -55q-47 -166 -175 -264t-294 -98q-209 0 -350.5 149.5t-141.5 382.5t141.5 382.5t350.5 149.5z" glyph-name="c" unicode="c"/><glyph d="M1075 1434v-1434h-164v121q-125 -141 -327 -141q-209 0 -350.5 149.5t-141.5 382.5t141.5 382.5t350.5 149.5q203 0 327 -141v471zM583.5 133q137.5 0 232.5 107.5t95 271.5t-95 271.5t-232.5 107.5t-232.5 -107.5t-95 -271.5t95 -271.5t232.5 -107.5z" glyph-name="d" unicode="d"/><glyph d="M584 1044q197 0 339 -150.5t142 -381.5q0 -25 -4 -74h-789q23 -135 112 -220t210 -85q178 0 270 162l158 -57q-66 -121 -178.5 -189.5t-249.5 -68.5q-209 0 -350.5 149.5t-141.5 382.5t137.5 382.5t344.5 149.5zM584 891q-119 0 -204 -83t-108 -216h623q-23 129 -114 214 t-197 85z" glyph-name="e" unicode="e"/><glyph d="M481 975h543v-154h-543v-821h-164v821h-215v154h215v69q0 168 120 289t290 121q106 0 198.5 -52t149.5 -140l-157 -58q-76 96 -191 96q-100 0 -173 -76.5t-73 -179.5v-69z" glyph-name="f" unicode="f"/><glyph d="M473 143h246q125 0 211 -76.5t86 -199.5q0 -115 -87 -196t-210 -81h-246q-123 0 -210 80t-87 197q0 98 82 184q-113 76 -113 225q0 111 103 191q-47 84 -47 188q0 162 113.5 275.5t275.5 113.5q78 0 147 -28l254 90l51 -143l-155 -58q92 -109 92 -250 q0 -162 -113.5 -275.5t-275.5 -113.5q-141 0 -244 84q-37 -29 -37 -74q0 -80 45 -106.5t119 -26.5zM590 891q-92 0 -158.5 -70.5t-66.5 -165t66.5 -165t158.5 -70.5t158.5 70.5t66.5 165t-66.5 165t-158.5 70.5zM729 -10h-266q-51 0 -87 -36t-36 -87t36 -87t87 -36h266 q51 0 87 36t36 87t-36 87t-87 36z" glyph-name="g" unicode="g"/><glyph d="M604 1044q188 0 309 -133t121 -327v-584h-164v584q0 127 -73.5 217t-192.5 90q-123 0 -215 -92t-92 -215v-584h-164v1374l164 60v-521q125 131 307 131z" glyph-name="h" unicode="h"/><glyph d="M584 1403q43 0 72.5 -30t29.5 -73q0 -41 -29.5 -71.5t-72.5 -30.5q-41 0 -72 31t-31 71q0 43 31 73t72 30zM1044 154v-154h-921v154h379v716h-285l55 154h394v-870h378z" glyph-name="i" unicode="i"/><glyph d="M842 1198q-41 0 -72 31t-31 71q0 43 31 73t72 30q43 0 72.5 -30t29.5 -73q0 -41 -29.5 -71.5t-72.5 -30.5zM924 1024v-1044q0 -168 -120 -289t-290 -121q-106 0 -198.5 52t-149.5 140l158 58q76 -96 190 -96q100 0 173 76.5t73 179.5v890h-369l60 154h473z" glyph-name="j" unicode="j"/><glyph d="M451 377l-134 -160v-217h-163v1374l163 60v-959l461 549h215l-436 -520l457 -504h-215z" glyph-name="k" unicode="k"/><glyph d="M885 229l157 -57q-57 -88 -149 -140t-199 -52q-168 0 -287.5 119.5t-119.5 289.5v840h-162l55 153h271v-993q0 -102 71.5 -179t171.5 -77q115 0 191 96z" glyph-name="l" unicode="l"/><glyph d="M799 1044q113 0 184.5 -88t71.5 -249v-707h-164v707q0 184 -112.5 184t-112.5 -184v-707h-164v707q0 184 -113 184t-113 -184v-707h-163v1024h163v-135q41 156 154 155q135 0 201 -143q45 143 168 143z" glyph-name="m" unicode="m"/><glyph d="M604 1044q188 0 309 -133t121 -327v-584h-164v584q0 127 -73.5 217t-192.5 90q-123 0 -215 -92t-92 -215v-584h-164v1024h164v-111q125 131 307 131z" glyph-name="n" unicode="n"/><glyph d="M584 1044q209 0 350 -149.5t141 -382.5t-141 -382.5t-350 -149.5t-350.5 149.5t-141.5 382.5t141.5 382.5t350.5 149.5zM583.5 891q-137.5 0 -232.5 -107.5t-95 -271.5t95 -271.5t232.5 -107.5t232.5 107.5t95 271.5t-95 271.5t-232.5 107.5z" glyph-name="o" unicode="o"/><glyph d="M584 1044q209 0 350 -149.5t141 -382.5t-141 -382.5t-350 -149.5q-203 0 -328 141v-471l-164 -60v1434h164v-121q125 141 328 141zM583.5 133q137.5 0 232.5 107.5t95 271.5t-95 271.5t-232.5 107.5t-232.5 -107.5t-95 -271.5t95 -271.5t232.5 -107.5z" glyph-name="p" unicode="p"/><glyph d="M1075 1024v-1374l-164 -60v531q-125 -141 -327 -141q-209 0 -350.5 149.5t-141.5 382.5t141.5 382.5t350.5 149.5q203 0 327 -141v121h164zM583.5 133q137.5 0 232.5 107.5t95 271.5t-95 271.5t-232.5 107.5t-232.5 -107.5t-95 -271.5t95 -271.5t232.5 -107.5z" glyph-name="q" unicode="q"/><glyph d="M606 1044q172 0 290 -114.5t136 -288.5l-160 -57q0 127 -73.5 217t-192.5 90q-123 0 -215 -92t-92 -215v-584h-164v1024h164v-111q125 131 307 131z" glyph-name="r" unicode="r"/><glyph d="M598 1044q289 0 373 -229l-154 -55q-23 66 -69 98.5t-150 32.5t-162.5 -41t-58.5 -105q0 -55 65.5 -88.5t158.5 -55t186.5 -51.5t159 -95.5t65.5 -167.5q0 -145 -119 -226t-309 -81q-164 0 -273.5 72.5t-154.5 195.5l153 57q59 -172 275 -172q152 0 208 48t56 106 q0 55 -65.5 89t-159 55.5t-186.5 51t-158.5 96t-65.5 166.5q0 143 104.5 221t280.5 78z" glyph-name="s" unicode="s"/><glyph d="M915 229l158 -57q-57 -88 -149.5 -140t-198.5 -52q-168 0 -288 119.5t-120 289.5v432h-235v154h235v399l164 60v-459h420v-154h-420v-432q0 -102 72 -179t172 -77q114 0 190 96z" glyph-name="t" unicode="t"/><glyph d="M1034 1024v-1024h-164v111q-125 -131 -307 -131q-188 0 -309 133t-121 327v584h164v-584q0 -127 73.5 -217t192.5 -90q123 0 215 92t92 215v584h164z" glyph-name="u" unicode="u"/><glyph d="M684 0h-201l-372 1024h182l291 -838l290 838h183z" glyph-name="v" unicode="v"/><glyph d="M856 0h-164l-108 637l-109 -637h-164l-202 1024h163l123 -655l80 473h217l80 -473l123 655h162z" glyph-name="w" unicode="w"/><glyph d="M668 549l379 -549h-189l-274 395l-273 -395h-188l377 549l-336 475h188l232 -324l231 324h189z" glyph-name="x" unicode="x"/><glyph d="M1057 1024l-391 -1024v-350l-164 -60v410l-391 1024h182l291 -836l290 836h183z" glyph-name="y" unicode="y"/><glyph d="M1040 870l-700 -716h700v-154h-913v154l700 716h-700v154h913v-154z" glyph-name="z" unicode="z"/><glyph d="M850 1581v-154q-68 0 -138.5 -73.5t-66.5 -141.5v-315q0 -86 -42 -148.5t-118 -125.5q76 -63 118 -126t42 -149v-315q0 -68 68.5 -141.5t136.5 -73.5v-154q-152 0 -260.5 107.5t-108.5 261.5v315q0 70 -49 125t-115 55v189q66 0 115 55t49 125v315q0 154 108.5 261.5 t260.5 107.5z" glyph-name="braceleft" unicode="{"/><glyph d="M666 -102h-164v1536h164v-1536z" glyph-name="bar" unicode="|"/><glyph d="M317 1427v154q152 0 260.5 -107.5t108.5 -261.5v-315q0 -70 49 -125t115 -55v-189q-66 0 -115 -55t-49 -125v-315q0 -154 -108.5 -261.5t-260.5 -107.5v154q68 0 138.5 73.5t66.5 141.5v315q0 86 42 148.5t118 126.5q-76 63 -118 125.5t-42 148.5v315q0 68 -68.5 141.5 t-136.5 73.5z" glyph-name="braceright" unicode="}"/><glyph d="M786 705q78 -20 114 -89t13 -149l-114 39q12 57 -45 74q-47 12 -92 -33q-35 -35 -45.5 -44t-39 -34t-44 -31t-41 -16t-51 -8t-54.5 10q-80 20 -118 92t-15 156l117 -39q-16 -66 51 -82q47 -14 98 35q27 27 43.5 42t40 34.5t42 28.5t42 16.5t47.5 6.5t51 -9z" glyph-name="asciitilde" unicode="~"/><glyph d="M584 819q-43 0 -73 30t-30 73q0 41 30 71.5t73 30.5q41 0 71.5 -30.5t30.5 -71.5q0 -43 -30.5 -73t-71.5 -30zM502 594h164v-965l-164 -59v1024z" glyph-name="exclamdown" unicode="¡"/><glyph d="M584 133q111 0 196.5 73t116.5 191l156 -55q-41 -143 -144.5 -238.5t-242.5 -117.5v-150h-164v150q-178 31 -294 174t-116 352t116 352.5t294 173.5v150h164v-150q139 -23 242.5 -118t144.5 -238l-156 -55q-31 119 -117 191.5t-196 72.5q-137 0 -232.5 -107.5 t-95.5 -271.5t95.5 -271.5t232.5 -107.5z" glyph-name="cent" unicode="¢"/><glyph d="M737 1454q106 0 198.5 -52t149.5 -140l-157 -58q-76 96 -191 96q-100 0 -172.5 -76.5t-72.5 -179.5v-69h296v-154h-296v-411q0 -143 -91 -256h623v-154h-942v154q100 0 173 76.5t73 179.5v411h-215v154h215v69q0 168 120.5 289t288.5 121z" glyph-name="sterling" unicode="£"/><glyph d="M1075 512q0 -168 -78 -297l101 -100l-117 -117l-90 90q-131 -109 -307 -108.5t-308 108.5l-90 -90l-116 117l100 100q-78 129 -78 297t78 297l-100 100l116 117l90 -90q131 109 307.5 108.5t307.5 -108.5l90 90l117 -117l-101 -100q78 -129 78 -297zM583.5 133 q137.5 0 232.5 107.5t95 271.5t-95 271.5t-232.5 107.5t-232.5 -107.5t-95 -271.5t95 -271.5t232.5 -107.5z" glyph-name="currency" unicode="¤"/><glyph d="M678 610h221v-153h-233v-133h233v-154h-233v-170h-164v170h-217v154h217v133h-217v153h204l-378 772h188l285 -620l284 620h189z" glyph-name="yen" unicode="¥"/><glyph d="M666 799h-164v635h164v-635zM666 -102h-164v634h164v-634z" glyph-name="brokenbar" unicode="¦"/><glyph d="M571 1403q139 0 241.5 -79t145.5 -210l-151 -55q-18 86 -78.5 138t-157.5 52q-119 0 -184 -64.5t-65 -150.5t73.5 -140t179 -86t212 -71t180 -126t73.5 -222q0 -109 -61 -203q61 -84 61 -206q0 -172 -137 -291t-332 -119q-152 0 -274.5 86t-169.5 223l154 58 q33 -92 112.5 -152.5t177.5 -60.5q125 0 217.5 78.5t92.5 177.5q0 90 -74 145t-180.5 86t-212 68.5t-179 123.5t-73.5 222q0 117 59 204q-59 82 -59 205q0 164 114.5 266.5t294.5 102.5zM346 723q-25 -47 -24 -98q0 -74 56 -125t128 -75l178.5 -59.5t169.5 -72.5 q27 49 27 96q0 98 -80 151.5t-232.5 98.5t-222.5 84z" glyph-name="section" unicode="§"/><glyph d="M246 1403q43 0 72.5 -30t29.5 -73q0 -41 -29.5 -71.5t-72.5 -30.5q-41 0 -72 31t-31 71q0 43 31 73t72 30zM594 1403q43 0 72.5 -30t29.5 -73q0 -41 -29.5 -71.5t-72.5 -30.5q-41 0 -71.5 31t-30.5 71q0 43 30.5 73t71.5 30z" glyph-name="dieresis" unicode="¨"/><glyph d="M584 1217q217 0 368.5 -154t151.5 -371t-151.5 -370.5t-368.5 -153.5t-369 153.5t-152 370.5t152 371t369 154zM583.5 1102q-161.5 0 -275 -122t-113.5 -288t112.5 -284.5t276.5 -118.5t276.5 118.5t112.5 284.5t-114 288t-275.5 122zM584 965q156 0 231 -129l-100 -35 q-51 68 -131 67q-68 0 -112 -52t-44 -123.5t44 -124t112 -52.5q80 0 131 68l100 -35q-78 -129 -231 -129q-111 0 -186.5 79t-75.5 193.5t75.5 193.5t186.5 79z" glyph-name="copyright" unicode="©"/><glyph d="M590 1403q117 0 190.5 -59.5t73.5 -161.5v-406h-98v43q-68 -55 -185 -55q-111 0 -184.5 56.5t-73.5 165t74 164.5t184 56q117 0 185 -55v31q0 63 -45 96t-121 33q-70 0 -115 -27l-102 37q74 82 217 82zM571 856q86 0 135.5 33t49.5 96.5t-49.5 96t-135.5 32.5 q-160 0 -160 -129t160 -129z" glyph-name="ordfeminine" unicode="ª"/><glyph d="M647 713l-432 -201l432 -205v-106l-518 241v140l518 241v-110zM1038 713l-432 -201l432 -205v-106l-520 241v140l520 241v-110z" glyph-name="guillemotleft" unicode="«"/><glyph d="M1061 858v-553h-164v400h-791v153h955z" glyph-name="logicalnot" unicode="¬"/><glyph d="M891 436h-615v154h615v-154z" glyph-name="uni00AD" unicode="­"/><glyph d="M592 1217q215 0 366.5 -154t151.5 -371t-151.5 -370.5t-366.5 -153.5q-219 0 -377 154.5t-158 369.5t158 370t377 155zM592 1102q-172 0 -288 -121t-116 -289q0 -164 120 -283.5t284 -119.5q170 0 278.5 117.5t108.5 285.5q0 166 -112.5 288t-274.5 122zM410 1028h186 q74 0 140.5 -55t66.5 -152q0 -68 -31 -100.5t-86 -48.5l150 -262h-146l-147 256h-2v-256h-131v618zM541 897v-154h55q29 0 50.5 24t21.5 54.5t-21.5 53t-50.5 22.5h-55z" glyph-name="registered" unicode="®"/><glyph d="M676 1229h-574v153h574v-153z" glyph-name="macron" unicode="¯"/><glyph d="M583.5 1403q75.5 0 130 -54.5t54.5 -130t-54.5 -130t-130 -54.5t-130 54.5t-54.5 130t54.5 130t130 54.5zM584 1321q-41 0 -72 -29.5t-31 -72.5q0 -41 31 -72t72 -31q43 0 72.5 31t29.5 72q0 43 -29.5 72.5t-72.5 29.5z" glyph-name="degree" unicode="°"/><glyph d="M1018 688v-153h-352v-256h-164v256h-352v153h352v336h164v-336h352zM150 154h868v-154h-868v154z" glyph-name="plusminus" unicode="±"/><glyph d="M610 1159q0 -78 -41 -131t-101 -81.5t-119.5 -56.5t-103.5 -75t-46 -119h399v-88h-489v88q0 88 42 149.5t103 93.5t121.5 59.5t102.5 69.5t42 103q0 68 -46 106t-114 38q-133 0 -176 -121l-86 33q59 174 262 174q104 0 177 -65.5t73 -176.5z" glyph-name="uni00B2" unicode="²"/><glyph d="M346 1411q86 0 146.5 -60.5t60.5 -146.5q0 -90 -84 -160q121 -78 121 -202q0 -100 -72 -172t-172 -72q-78 0 -140.5 45t-86.5 117l86 31q16 -45 54 -75t87 -30q63 0 107.5 46t44.5 110q0 61 -45 108t-107 47h-35v86h35q47 0 81 36t34 85t-34 85t-81 36t-80 -36t-33 -85 h-94q0 86 61.5 146.5t145.5 60.5z" glyph-name="uni00B3" unicode="³"/><glyph d="M350 1147h-172l199 235h172z" glyph-name="acute" unicode="´"/><glyph d="M1147 1434v-154q-59 0 -101 -46t-42 -108v-1228q0 -127 -90.5 -217.5t-217.5 -90.5v154q59 0 101.5 46t42.5 108v1126h-244v-1126q0 -127 -90 -217.5t-217 -90.5q-98 0 -177 56.5t-112 146.5l154 57q14 -45 51 -75.5t84 -30.5q59 0 101 46t42 108v888q-133 0 -228 95.5 t-95 228.5t95 228.5t228 95.5h715z" glyph-name="paragraph" unicode="¶"/><glyph d="M584 881q43 0 72.5 -30t29.5 -73q0 -41 -29.5 -71.5t-72.5 -30.5q-41 0 -72 30.5t-31 71.5q0 43 31 73t72 30z" glyph-name="periodcentered" unicode="·"/><glyph d="M782 0l-16 -88q57 -39 57 -121q0 -106 -73.5 -174t-182.5 -68q-150 0 -219 127l94 109q2 -47 40 -81t85 -34q51 0 86 35t35 86t-36 86t-91 35l17 88v10l204 6v-16z" glyph-name="cedilla" unicode="¸"/><glyph d="M610 696v-86h-512v86h236v607h-133l-31 88h256v-695h184z" glyph-name="uni00B9" unicode="¹"/><glyph d="M584 1403q125 0 210 -90t85 -229.5t-85 -229.5t-210 -90t-210 90t-85 229.5t85 229.5t210 90zM584 1311q-82 0 -139.5 -64.5t-57.5 -163t57.5 -163t139.5 -64.5t139 64.5t57 163t-57 163t-139 64.5z" glyph-name="ordmasculine" unicode="º"/><glyph d="M649 582v-140l-520 -241v110l432 201l-432 205v106zM1038 582v-140l-518 -241v110l432 201l-432 205v106z" glyph-name="guillemotright" unicode="»"/><glyph d="M403 829v62h168v430h-94l-22 61h182v-491h131v-62h-365zM1065 717v-62h-963v62h963zM684 528l66 25v-553h-66v252h-270v297l65 24v-260h205v215z" glyph-name="onequarter" horiz-adv-x="1228" unicode="¼"/><glyph d="M403 829v62h168v430h-94l-22 61h182v-491h131v-62h-365zM1065 717v-62h-963v62h963zM764 389q0 -68 -45 -110.5t-98.5 -60t-100.5 -56.5t-49 -101h285v-61h-348v61q0 76 46 126.5t100 68.5t100 54t46 87q0 49 -33.5 76t-80.5 27q-92 0 -125 -86l-62 24q45 123 187 123 q76 0 127 -47t51 -125z" glyph-name="onehalf" unicode="½"/><glyph d="M588 889q43 0 74.5 32.5t31.5 77.5t-31.5 78t-74.5 33h-27v61h27q33 0 56.5 26t23.5 60.5t-23.5 59t-56.5 24.5t-57.5 -24.5t-24.5 -59.5h-66q0 59 43 102.5t105 43.5q59 0 102 -43t43 -103q0 -63 -59 -114q86 -53 86 -144q0 -70 -50.5 -121t-121.5 -51q-55 0 -100.5 32 t-63.5 83l61 21q29 -74 103 -74zM1065 717v-62h-963v62h963zM684 528l66 25v-553h-66v252h-270v297l65 24v-260h205v215z" glyph-name="threequarters" horiz-adv-x="1228" unicode="¾"/><glyph d="M594 840q-43 0 -72.5 29.5t-29.5 72.5t29.5 72.5t72.5 29.5q41 0 71.5 -29.5t30.5 -72.5t-30.5 -72.5t-71.5 -29.5zM608 -379q-190 0 -309 81t-119 226q0 102 65.5 170t159 97.5t186.5 52t158.5 56.5t65.5 89q0 61 -58.5 100t-163 39t-150.5 -32.5t-68 -98.5l-154 56 q84 229 373 229q174 0 279.5 -83t105.5 -224q0 -94 -65.5 -156.5t-158.5 -92.5t-186.5 -52.5t-159 -57t-65.5 -90.5q0 -57 56.5 -106t207.5 -49q215 0 275 172l153 -58q-45 -123 -154.5 -195.5t-273.5 -72.5z" glyph-name="questiondown" unicode="¿"/><glyph d="M670 1505h-172l-199 236h172zM809 436h-451l-133 -436h-180l449 1382h180l448 -1382h-180zM762 590l-178 586l-178 -586h356z" glyph-name="Agrave" unicode="À"/><glyph d="M670 1505h-172l198 236h172zM809 436h-451l-133 -436h-180l449 1382h180l448 -1382h-180zM762 590l-178 586l-178 -586h356z" glyph-name="Aacute" unicode="Á"/><glyph d="M844 1505h-170l-90 117l-90 -117h-170l198 236h123zM809 436h-451l-133 -436h-180l449 1382h180l448 -1382h-180zM762 590l-178 586l-178 -586h356z" glyph-name="Acircumflex" unicode="Â"/><glyph d="M776 1761l123 -102q-63 -106 -199 -107q-70 0 -143.5 37t-91.5 37q-31 0 -53.5 -21.5t-22.5 -52.5l-123 103q66 106 199 106q70 0 143.5 -36.5t91.5 -36.5q33 0 54.5 21t21.5 52zM809 436h-451l-133 -436h-180l449 1382h180l448 -1382h-180zM762 590l-178 586l-178 -586 h356z" glyph-name="Atilde" unicode="Ã"/><glyph d="M410 1761q43 0 72.5 -29.5t29.5 -72.5q0 -41 -29.5 -72t-72.5 -31q-41 0 -72 31t-31 72q0 43 31 72.5t72 29.5zM758 1761q43 0 72.5 -29.5t29.5 -72.5q0 -41 -29.5 -72t-72.5 -31q-41 0 -72 31t-31 72q0 43 31 72.5t72 29.5zM809 436h-451l-133 -436h-180l449 1382h180 l448 -1382h-180zM762 590l-178 586l-178 -586h356z" glyph-name="Adieresis" unicode="Ä"/><glyph d="M584 1915q84 0 144 -60.5t60 -144.5t-60 -144.5t-144 -60.5t-144.5 60.5t-60.5 144.5t60.5 144.5t144.5 60.5zM584 1812q-41 0 -72 -29.5t-31 -72.5q0 -41 31 -71.5t72 -30.5q43 0 72.5 30.5t29.5 71.5q0 43 -29.5 72.5t-72.5 29.5zM809 436h-451l-133 -436h-180 l449 1382h180l448 -1382h-180zM762 590l-178 586l-178 -586h356z" glyph-name="Aring" unicode="Å"/><glyph d="M1065 1229h-358v-434h247v-154h-247v-487h358v-154h-522v436h-148l-133 -436h-160l449 1382h514v-153zM442 590h101v311z" glyph-name="AE" unicode="Æ"/><glyph d="M584 133q152 0 232.5 124t98.5 314l158 -57q-29 -209 -128 -349t-261 -175l-14 -78q57 -39 57 -121q0 -106 -73.5 -174t-182.5 -68q-150 0 -219 127l94 109q2 -47 40 -81t85 -34q51 0 86 35t35 86t-36 86t-91 35l14 78q-193 45 -295 236.5t-102 465.5q0 311 130 511 t372 200q205 0 329.5 -145.5t159.5 -387.5l-158 -57q-18 190 -99 313t-232 123q-92 0 -161 -49t-105.5 -132t-54 -177t-17.5 -198.5t17.5 -199t54 -178.5t105.5 -133t161 -49z" glyph-name="Ccedilla" unicode="Ç"/><glyph d="M670 1505h-172l-199 236h172zM1024 1229h-717v-434h565v-154h-565v-487h717v-154h-881v1382h881v-153z" glyph-name="Egrave" unicode="È"/><glyph d="M670 1505h-172l198 236h172zM1024 1229h-717v-434h565v-154h-565v-487h717v-154h-881v1382h881v-153z" glyph-name="Eacute" unicode="É"/><glyph d="M844 1505h-170l-90 117l-90 -117h-170l198 236h123zM1024 1229h-717v-434h565v-154h-565v-487h717v-154h-881v1382h881v-153z" glyph-name="Ecircumflex" unicode="Ê"/><glyph d="M410 1761q43 0 72.5 -29.5t29.5 -72.5q0 -41 -29.5 -72t-72.5 -31q-41 0 -72 31t-31 72q0 43 31 72.5t72 29.5zM758 1761q43 0 72.5 -29.5t29.5 -72.5q0 -41 -29.5 -72t-72.5 -31q-41 0 -72 31t-31 72q0 43 31 72.5t72 29.5zM1024 1229h-717v-434h565v-154h-565v-487h717 v-154h-881v1382h881v-153z" glyph-name="Edieresis" unicode="Ë"/><glyph d="M670 1505h-172l-199 236h172zM666 1229v-1075h378v-154h-921v154h379v1075h-379v153h921v-153h-378z" glyph-name="Igrave" unicode="Ì"/><glyph d="M670 1505h-172l198 236h172zM666 1229v-1075h378v-154h-921v154h379v1075h-379v153h921v-153h-378z" glyph-name="Iacute" unicode="Í"/><glyph d="M844 1505h-170l-90 117l-90 -117h-170l198 236h123zM666 1229v-1075h378v-154h-921v154h379v1075h-379v153h921v-153h-378z" glyph-name="Icircumflex" unicode="Î"/><glyph d="M410 1761q43 0 72.5 -29.5t29.5 -72.5q0 -41 -29.5 -72t-72.5 -31q-41 0 -72 31t-31 72q0 43 31 72.5t72 29.5zM758 1761q43 0 72.5 -29.5t29.5 -72.5q0 -41 -29.5 -72t-72.5 -31q-41 0 -72 31t-31 72q0 43 31 72.5t72 29.5zM666 1229v-1075h378v-154h-921v154h379v1075 h-379v153h921v-153h-378z" glyph-name="Idieresis" unicode="Ï"/><glyph d="M186 1382h293q291 0 470 -195.5t179 -494.5t-179 -495.5t-470 -196.5h-293v616h-127v154h127v612zM350 154h129q209 0 347.5 155.5t138.5 383t-138.5 382t-347.5 154.5h-129v-459h209v-154h-209v-462z" glyph-name="Eth" unicode="Ð"/><glyph d="M776 1761l123 -102q-63 -106 -199 -107q-70 0 -143.5 37t-91.5 37q-31 0 -53.5 -21.5t-22.5 -52.5l-123 103q66 106 199 106q70 0 143.5 -36.5t91.5 -36.5q33 0 54.5 21t21.5 52zM1047 0h-164l-596 1065v-1065h-164v1382h164l596 -1065v1065h164v-1382z" glyph-name="Ntilde" unicode="Ñ"/><glyph d="M674 1505h-172l-199 236h172zM588 1403q240 0 368.5 -199.5t128.5 -511t-129 -512t-368 -200.5q-242 0 -374 201.5t-132 510.5t132 510t374 201zM588 1249q-92 0 -162 -49t-107.5 -132t-55 -177t-17.5 -198.5t17.5 -199t55 -178.5t107.5 -133t162 -49t159.5 49t104.5 133 t53.5 178.5t16.5 199t-16.5 198.5t-53.5 177t-104.5 132t-159.5 49z" glyph-name="Ograve" unicode="Ò"/><glyph d="M674 1505h-172l198 236h172zM588 1403q240 0 368.5 -199.5t128.5 -511t-129 -512t-368 -200.5q-242 0 -374 201.5t-132 510.5t132 510t374 201zM588 1249q-92 0 -162 -49t-107.5 -132t-55 -177t-17.5 -198.5t17.5 -199t55 -178.5t107.5 -133t162 -49t159.5 49t104.5 133 t53.5 178.5t16.5 199t-16.5 198.5t-53.5 177t-104.5 132t-159.5 49z" glyph-name="Oacute" unicode="Ó"/><glyph d="M848 1505h-170l-90 117l-90 -117h-170l198 236h123zM588 1403q240 0 368.5 -199.5t128.5 -511t-129 -512t-368 -200.5q-242 0 -374 201.5t-132 510.5t132 510t374 201zM588 1249q-92 0 -162 -49t-107.5 -132t-55 -177t-17.5 -198.5t17.5 -199t55 -178.5t107.5 -133 t162 -49t159.5 49t104.5 133t53.5 178.5t16.5 199t-16.5 198.5t-53.5 177t-104.5 132t-159.5 49z" glyph-name="Ocircumflex" unicode="Ô"/><glyph d="M780 1761l123 -102q-63 -106 -198 -107q-70 0 -144 37t-92 37q-31 0 -53.5 -21.5t-22.5 -52.5l-123 103q66 106 199 106q70 0 143.5 -36.5t92.5 -36.5q33 0 54 21t21 52zM588 1403q240 0 368.5 -199.5t128.5 -511t-129 -512t-368 -200.5q-242 0 -374 201.5t-132 510.5 t132 510t374 201zM588 1249q-92 0 -162 -49t-107.5 -132t-55 -177t-17.5 -198.5t17.5 -199t55 -178.5t107.5 -133t162 -49t159.5 49t104.5 133t53.5 178.5t16.5 199t-16.5 198.5t-53.5 177t-104.5 132t-159.5 49z" glyph-name="Otilde" unicode="Õ"/><glyph d="M414 1761q43 0 72.5 -29.5t29.5 -72.5q0 -41 -29.5 -72t-72.5 -31q-41 0 -72 31t-31 72q0 43 31 72.5t72 29.5zM762 1761q43 0 72.5 -29.5t29.5 -72.5q0 -41 -29.5 -72t-72.5 -31q-41 0 -72 31t-31 72q0 43 31 72.5t72 29.5zM588 1403q240 0 368.5 -199.5t128.5 -511 t-129 -512t-368 -200.5q-242 0 -374 201.5t-132 510.5t132 510t374 201zM588 1249q-92 0 -162 -49t-107.5 -132t-55 -177t-17.5 -198.5t17.5 -199t55 -178.5t107.5 -133t162 -49t159.5 49t104.5 133t53.5 178.5t16.5 199t-16.5 198.5t-53.5 177t-104.5 132t-159.5 49z" glyph-name="Odieresis" unicode="Ö"/><glyph d="M887 94l-303 303l-305 -305l-115 117l303 303l-303 303l117 117l303 -303l303 303l114 -117l-303 -303l306 -305z" glyph-name="multiply" unicode="×"/><glyph d="M983 1444l-68 -164q190 -195 191 -588q0 -311 -129 -511.5t-369 -200.5q-119 0 -211 51l-39 -92h-172l82 196q-166 197 -166 557q0 309 132.5 510t373.5 201q90 0 172 -33l31 74h172zM266 692q0 -233 76 -379l379 914q-51 23 -113 22q-92 0 -161.5 -49t-107.5 -132 t-55.5 -177.5t-17.5 -198.5zM608 133q92 0 160 49t104.5 133t53 178.5t16.5 198.5q0 268 -96 422l-389 -938q69 -43 151 -43z" glyph-name="Oslash" unicode="Ø"/><glyph d="M670 1505h-172l-199 236h172zM1044 1382v-942q0 -190 -135 -325t-325.5 -135t-325.5 135t-135 325v942h164v-942q0 -123 87 -215t210 -92t210 92t87 215v942h163z" glyph-name="Ugrave" unicode="Ù"/><glyph d="M670 1505h-172l198 236h172zM1044 1382v-942q0 -190 -135 -325t-325.5 -135t-325.5 135t-135 325v942h164v-942q0 -123 87 -215t210 -92t210 92t87 215v942h163z" glyph-name="Uacute" unicode="Ú"/><glyph d="M844 1505h-170l-90 117l-90 -117h-170l198 236h123zM1044 1382v-942q0 -190 -135 -325t-325.5 -135t-325.5 135t-135 325v942h164v-942q0 -123 87 -215t210 -92t210 92t87 215v942h163z" glyph-name="Ucircumflex" unicode="Û"/><glyph d="M410 1761q43 0 72.5 -29.5t29.5 -72.5q0 -41 -29.5 -72t-72.5 -31q-41 0 -72 31t-31 72q0 43 31 72.5t72 29.5zM758 1761q43 0 72.5 -29.5t29.5 -72.5q0 -41 -29.5 -72t-72.5 -31q-41 0 -72 31t-31 72q0 43 31 72.5t72 29.5zM1044 1382v-942q0 -190 -135 -325 t-325.5 -135t-325.5 135t-135 325v942h164v-942q0 -123 87 -215t210 -92t210 92t87 215v942h163z" glyph-name="Udieresis" unicode="Ü"/><glyph d="M670 1505h-172l198 236h172zM1057 1382l-391 -798v-584h-164v584l-391 798h188l285 -620l284 620h189z" glyph-name="Yacute" unicode="Ý"/><glyph d="M287 1157h379q158 0 268 -111.5t110 -267t-110.5 -267.5t-267.5 -112h-379v-399h-164v1382h164v-225zM287 553h379q88 0 151.5 67.5t63.5 157.5t-63.5 158t-151.5 68h-379v-451z" glyph-name="Thorn" unicode="Þ"/><glyph d="M811 754q213 -135 213 -344q0 -176 -125 -293t-305 -117h-125v154h125q113 0 189.5 72.5t76.5 183t-77.5 185.5t-188.5 75h-125v153h125q84 0 143.5 63.5t59.5 149.5q0 94 -76 153.5t-168 59.5q-88 0 -167 -65.5t-79 -147.5v-1036h-164v1036q0 150 127 258.5t283 108.5 q160 0 284 -103.5t124 -263.5q0 -161 -150 -282z" glyph-name="germandbls" unicode="ß"/><glyph d="M680 1147h-172l-199 235h172zM594 1044q195 0 317.5 -98t122.5 -270v-676h-164v72q-109 -92 -307 -92q-186 0 -308 94t-122 274t122 274.5t308 94.5q199 0 307 -92v51q0 104 -74.5 159.5t-201.5 55.5q-123 0 -193 -45l-168 61q119 137 361 137zM563 133q141 0 224 55.5 t83 160t-82.5 159.5t-224.5 55q-266 0 -266 -215t266 -215z" glyph-name="agrave" unicode="à"/><glyph d="M680 1147h-172l199 235h172zM594 1044q195 0 317.5 -98t122.5 -270v-676h-164v72q-109 -92 -307 -92q-186 0 -308 94t-122 274t122 274.5t308 94.5q199 0 307 -92v51q0 104 -74.5 159.5t-201.5 55.5q-123 0 -193 -45l-168 61q119 137 361 137zM563 133q141 0 224 55.5 t83 160t-82.5 159.5t-224.5 55q-266 0 -266 -215t266 -215z" glyph-name="aacute" unicode="á"/><glyph d="M854 1147h-170l-90 117l-90 -117h-170l198 235h123zM594 1044q195 0 317.5 -98t122.5 -270v-676h-164v72q-109 -92 -307 -92q-186 0 -308 94t-122 274t122 274.5t308 94.5q199 0 307 -92v51q0 104 -74.5 159.5t-201.5 55.5q-123 0 -193 -45l-168 61q119 137 361 137z M563 133q141 0 224 55.5t83 160t-82.5 159.5t-224.5 55q-266 0 -266 -215t266 -215z" glyph-name="acircumflex" unicode="â"/><glyph d="M786 1403l123 -103q-63 -106 -198 -106q-70 0 -143.5 37t-92.5 37q-31 0 -53.5 -21.5t-22.5 -52.5l-123 102q68 106 199 107q70 0 143.5 -37t92.5 -37q33 0 54 21.5t21 52.5zM594 1044q195 0 317.5 -98t122.5 -270v-676h-164v72q-109 -92 -307 -92q-186 0 -308 94 t-122 274t122 274.5t308 94.5q199 0 307 -92v51q0 104 -74.5 159.5t-201.5 55.5q-123 0 -193 -45l-168 61q119 137 361 137zM563 133q141 0 224 55.5t83 160t-82.5 159.5t-224.5 55q-266 0 -266 -215t266 -215z" glyph-name="atilde" unicode="ã"/><glyph d="M420 1403q43 0 72.5 -30t29.5 -73q0 -41 -29.5 -71.5t-72.5 -30.5q-41 0 -72 31t-31 71q0 43 31 73t72 30zM768 1403q43 0 72.5 -30t29.5 -73q0 -41 -29.5 -71.5t-72.5 -30.5q-41 0 -71.5 31t-30.5 71q0 43 30.5 73t71.5 30zM594 1044q195 0 317.5 -98t122.5 -270v-676 h-164v72q-109 -92 -307 -92q-186 0 -308 94t-122 274t122 274.5t308 94.5q199 0 307 -92v51q0 104 -74.5 159.5t-201.5 55.5q-123 0 -193 -45l-168 61q119 137 361 137zM563 133q141 0 224 55.5t83 160t-82.5 159.5t-224.5 55q-266 0 -266 -215t266 -215z" glyph-name="adieresis" unicode="ä"/><glyph d="M594 1556q84 0 144.5 -60t60.5 -144t-60.5 -144.5t-144.5 -60.5t-144.5 60.5t-60.5 144.5t60.5 144t144.5 60zM594 1454q-41 0 -71.5 -29.5t-30.5 -72.5q0 -41 30.5 -72t71.5 -31q43 0 72.5 31t29.5 72q0 43 -29.5 72.5t-72.5 29.5zM594 1044q195 0 317.5 -98t122.5 -270 v-676h-164v72q-109 -92 -307 -92q-186 0 -308 94t-122 274t122 274.5t308 94.5q199 0 307 -92v51q0 104 -74.5 159.5t-201.5 55.5q-123 0 -193 -45l-168 61q119 137 361 137zM563 133q141 0 224 55.5t83 160t-82.5 159.5t-224.5 55q-266 0 -266 -215t266 -215z" glyph-name="aring" unicode="å"/><glyph d="M809 1044q92 0 155.5 -37.5t96.5 -113.5t47 -166t16 -215q0 -49 -2 -74h-460q0 -182 22 -233q31 -72 135 -72q78 0 108.5 36t55.5 126l141 -57q-31 -78 -47 -111t-51 -75t-84 -57t-123 -15q-178 0 -256 129q-61 -129 -211 -129q-143 0 -226 101t-83 257q0 154 83 256 t226 102q84 0 144 -43q16 238 -131 238q-125 0 -150 -150l-154 56q27 111 107 179t197 68q57 0 118.5 -38.5t87.5 -87.5q20 53 87 89.5t151 36.5zM809 891q-90 0 -117.5 -48t-29.5 -153v-98h294v35q0 61 -1 89.5t-8 69.5t-21.5 58.5t-44 32t-72.5 14.5zM352 543 q-76 0 -110.5 -57.5t-34.5 -147.5q0 -205 145 -205q76 0 111 57.5t35 147.5v18q-2 8 -2 25q-19 162 -144 162z" glyph-name="ae" unicode="æ"/><glyph d="M584 133q111 0 196.5 73t116.5 191l156 -55q-39 -139 -137.5 -232.5t-231.5 -119.5l-14 -78q57 -39 57 -121q0 -106 -73.5 -174t-182.5 -68q-150 0 -219 127l94 109q2 -47 40 -81t85 -34q51 0 86 35t35 86t-36 86t-91 35l14 78q-170 37 -278.5 178t-108.5 344 q0 233 141.5 382.5t350.5 149.5q166 0 294 -98t175 -264l-156 -55q-31 119 -117 191.5t-196 72.5q-137 0 -232.5 -107.5t-95.5 -271.5t95.5 -271.5t232.5 -107.5z" glyph-name="ccedilla" unicode="ç"/><glyph d="M670 1147h-172l-199 235h172zM584 1044q197 0 339 -150.5t142 -381.5q0 -25 -4 -74h-789q23 -135 112 -220t210 -85q178 0 270 162l158 -57q-66 -121 -178.5 -189.5t-249.5 -68.5q-209 0 -350.5 149.5t-141.5 382.5t137.5 382.5t344.5 149.5zM584 891q-119 0 -204 -83 t-108 -216h623q-23 129 -114 214t-197 85z" glyph-name="egrave" unicode="è"/><glyph d="M670 1147h-172l198 235h172zM584 1044q197 0 339 -150.5t142 -381.5q0 -25 -4 -74h-789q23 -135 112 -220t210 -85q178 0 270 162l158 -57q-66 -121 -178.5 -189.5t-249.5 -68.5q-209 0 -350.5 149.5t-141.5 382.5t137.5 382.5t344.5 149.5zM584 891q-119 0 -204 -83 t-108 -216h623q-23 129 -114 214t-197 85z" glyph-name="eacute" unicode="é"/><glyph d="M844 1147h-170l-90 117l-90 -117h-170l198 235h123zM584 1044q197 0 339 -150.5t142 -381.5q0 -25 -4 -74h-789q23 -135 112 -220t210 -85q178 0 270 162l158 -57q-66 -121 -178.5 -189.5t-249.5 -68.5q-209 0 -350.5 149.5t-141.5 382.5t137.5 382.5t344.5 149.5z M584 891q-119 0 -204 -83t-108 -216h623q-23 129 -114 214t-197 85z" glyph-name="ecircumflex" unicode="ê"/><glyph d="M410 1403q43 0 72.5 -30t29.5 -73q0 -41 -29.5 -71.5t-72.5 -30.5q-41 0 -72 31t-31 71q0 43 31 73t72 30zM758 1403q43 0 72.5 -30t29.5 -73q0 -41 -29.5 -71.5t-72.5 -30.5q-41 0 -72 31t-31 71q0 43 31 73t72 30zM584 1044q197 0 339 -150.5t142 -381.5q0 -25 -4 -74 h-789q23 -135 112 -220t210 -85q178 0 270 162l158 -57q-66 -121 -178.5 -189.5t-249.5 -68.5q-209 0 -350.5 149.5t-141.5 382.5t137.5 382.5t344.5 149.5zM584 891q-119 0 -204 -83t-108 -216h623q-23 129 -114 214t-197 85z" glyph-name="edieresis" unicode="ë"/><glyph d="M670 1147h-172l-199 235h172zM1044 154v-154h-921v154h379v716h-285l55 154h394v-870h378z" glyph-name="igrave" unicode="ì"/><glyph d="M670 1147h-172l198 235h172zM1044 154v-154h-921v154h379v716h-285l55 154h394v-870h378z" glyph-name="iacute" unicode="í"/><glyph d="M844 1147h-170l-90 117l-90 -117h-170l198 235h123zM1044 154v-154h-921v154h379v716h-285l55 154h394v-870h378z" glyph-name="icircumflex" unicode="î"/><glyph d="M410 1403q43 0 72.5 -30t29.5 -73q0 -41 -29.5 -71.5t-72.5 -30.5q-41 0 -72 31t-31 71q0 43 31 73t72 30zM758 1403q43 0 72.5 -30t29.5 -73q0 -41 -29.5 -71.5t-72.5 -30.5q-41 0 -72 31t-31 71q0 43 31 73t72 30zM1044 154v-154h-921v154h379v716h-285l55 154h394 v-870h378z" glyph-name="idieresis" unicode="ï"/><glyph d="M713 1139l235 -408q86 -121 86 -280q0 -197 -129 -334t-321.5 -137t-321.5 137t-129 333.5t129 334t322 137.5q23 0 67 -4l-94 163l-149 -53l-52 143l123 46l-76 129l158 57l76 -129l154 55l55 -143zM584 133q125 0 205.5 93t80.5 224.5t-80.5 224.5t-205.5 93t-206 -93 t-81 -224.5t81 -224.5t206 -93z" glyph-name="eth" unicode="ð"/><glyph d="M797 1403l123 -103q-63 -106 -199 -106q-70 0 -143.5 37t-92.5 37q-31 0 -53 -21.5t-22 -52.5l-123 102q66 106 198 107q70 0 143.5 -37t92.5 -37q33 0 54.5 21.5t21.5 52.5zM604 1044q188 0 309 -133t121 -327v-584h-164v584q0 127 -73.5 217t-192.5 90q-123 0 -215 -92 t-92 -215v-584h-164v1024h164v-111q125 131 307 131z" glyph-name="ntilde" unicode="ñ"/><glyph d="M670 1147h-172l-199 235h172zM584 1044q209 0 350 -149.5t141 -382.5t-141 -382.5t-350 -149.5t-350.5 149.5t-141.5 382.5t141.5 382.5t350.5 149.5zM583.5 891q-137.5 0 -232.5 -107.5t-95 -271.5t95 -271.5t232.5 -107.5t232.5 107.5t95 271.5t-95 271.5t-232.5 107.5 z" glyph-name="ograve" unicode="ò"/><glyph d="M670 1147h-172l198 235h172zM584 1044q209 0 350 -149.5t141 -382.5t-141 -382.5t-350 -149.5t-350.5 149.5t-141.5 382.5t141.5 382.5t350.5 149.5zM583.5 891q-137.5 0 -232.5 -107.5t-95 -271.5t95 -271.5t232.5 -107.5t232.5 107.5t95 271.5t-95 271.5t-232.5 107.5z " glyph-name="oacute" unicode="ó"/><glyph d="M844 1147h-170l-90 117l-90 -117h-170l198 235h123zM584 1044q209 0 350 -149.5t141 -382.5t-141 -382.5t-350 -149.5t-350.5 149.5t-141.5 382.5t141.5 382.5t350.5 149.5zM583.5 891q-137.5 0 -232.5 -107.5t-95 -271.5t95 -271.5t232.5 -107.5t232.5 107.5t95 271.5 t-95 271.5t-232.5 107.5z" glyph-name="ocircumflex" unicode="ô"/><glyph d="M776 1403l123 -103q-63 -106 -199 -106q-70 0 -143.5 37t-91.5 37q-31 0 -53.5 -21.5t-22.5 -52.5l-123 102q66 106 199 107q70 0 143.5 -37t91.5 -37q33 0 54.5 21.5t21.5 52.5zM584 1044q209 0 350 -149.5t141 -382.5t-141 -382.5t-350 -149.5t-350.5 149.5 t-141.5 382.5t141.5 382.5t350.5 149.5zM583.5 891q-137.5 0 -232.5 -107.5t-95 -271.5t95 -271.5t232.5 -107.5t232.5 107.5t95 271.5t-95 271.5t-232.5 107.5z" glyph-name="otilde" unicode="õ"/><glyph d="M410 1403q43 0 72.5 -30t29.5 -73q0 -41 -29.5 -71.5t-72.5 -30.5q-41 0 -72 31t-31 71q0 43 31 73t72 30zM758 1403q43 0 72.5 -30t29.5 -73q0 -41 -29.5 -71.5t-72.5 -30.5q-41 0 -72 31t-31 71q0 43 31 73t72 30zM584 1044q209 0 350 -149.5t141 -382.5t-141 -382.5 t-350 -149.5t-350.5 149.5t-141.5 382.5t141.5 382.5t350.5 149.5zM583.5 891q-137.5 0 -232.5 -107.5t-95 -271.5t95 -271.5t232.5 -107.5t232.5 107.5t95 271.5t-95 271.5t-232.5 107.5z" glyph-name="odieresis" unicode="ö"/><glyph d="M584 926q43 0 72.5 -30t29.5 -73t-29.5 -72.5t-72.5 -29.5t-73 29.5t-30 72.5t30 73t73 30zM1028 436h-889v154h889v-154zM584 303q43 0 72.5 -29.5t29.5 -72.5t-29.5 -73t-72.5 -30t-73 30t-30 73t30 72.5t73 29.5z" glyph-name="divide" unicode="÷"/><glyph d="M915 1208l-84 -231q113 -66 178.5 -187.5t65.5 -277.5q0 -233 -141 -382.5t-350 -149.5q-55 0 -111 12l-59 -166h-176l84 229q-106 70 -168 188.5t-62 268.5q0 233 141.5 382.5t350.5 149.5q53 0 92 -8l63 172h176zM256 512q0 -188 123 -299l244 676q-12 2 -39 2 q-137 0 -232.5 -107.5t-95.5 -271.5zM584 133q137 0 232 107.5t95 271.5q0 201 -137 311l-248 -684q27 -6 58 -6z" glyph-name="oslash" unicode="ø"/><glyph d="M498 1147l-199 235h172l199 -235h-172zM1034 1024v-1024h-164v111q-125 -131 -307 -131q-188 0 -309 133t-121 327v584h164v-584q0 -127 73.5 -217t192.5 -90q123 0 215 92t92 215v584h164z" glyph-name="ugrave" unicode="ù"/><glyph d="M670 1147h-172l198 235h172zM1034 1024v-1024h-164v111q-125 -131 -307 -131q-188 0 -309 133t-121 327v584h164v-584q0 -127 73.5 -217t192.5 -90q123 0 215 92t92 215v584h164z" glyph-name="uacute" unicode="ú"/><glyph d="M494 1147h-170l198 235h123l199 -235h-170l-90 117zM1034 1024v-1024h-164v111q-125 -131 -307 -131q-188 0 -309 133t-121 327v584h164v-584q0 -127 73.5 -217t192.5 -90q123 0 215 92t92 215v584h164z" glyph-name="ucircumflex" unicode="û"/><glyph d="M410 1198q-41 0 -72 31t-31 71q0 43 31 73t72 30q43 0 72.5 -30t29.5 -73q0 -41 -29.5 -71.5t-72.5 -30.5zM758 1198q-41 0 -72 31t-31 71q0 43 31 73t72 30q43 0 72.5 -30t29.5 -73q0 -41 -29.5 -71.5t-72.5 -30.5zM1034 1024v-1024h-164v111q-125 -131 -307 -131 q-188 0 -309 133t-121 327v584h164v-584q0 -127 73.5 -217t192.5 -90q123 0 215 92t92 215v584h164z" glyph-name="udieresis" unicode="ü"/><glyph d="M670 1147h-172l198 235h172zM1057 1024l-391 -1024v-350l-164 -60v410l-391 1024h182l291 -836l290 836h183z" glyph-name="yacute" unicode="ý"/><glyph d="M584 1044q209 0 350 -149.5t141 -382.5t-141 -382.5t-350 -149.5q-203 0 -328 141v-471l-164 -60v1784l164 60v-531q125 141 328 141zM583.5 133q137.5 0 232.5 107.5t95 271.5t-95 271.5t-232.5 107.5t-232.5 -107.5t-95 -271.5t95 -271.5t232.5 -107.5z" glyph-name="thorn" unicode="þ"/><glyph d="M410 1198q-41 0 -72 31t-31 71q0 43 31 73t72 30q43 0 72.5 -30t29.5 -73q0 -41 -29.5 -71.5t-72.5 -30.5zM758 1198q-41 0 -72 31t-31 71q0 43 31 73t72 30q43 0 72.5 -30t29.5 -73q0 -41 -29.5 -71.5t-72.5 -30.5zM1057 1024l-391 -1024v-350l-164 -60v410l-391 1024 h182l291 -836l290 836h183z" glyph-name="ydieresis" unicode="ÿ"/><glyph d="M870 1587h-573v154h573v-154zM809 436h-451l-133 -436h-180l449 1382h180l448 -1382h-180zM762 590l-178 586l-178 -586h356z" glyph-name="Amacron" unicode="Ā"/><glyph d="M881 1229h-574v153h574v-153zM594 1044q195 0 317.5 -98t122.5 -270v-676h-164v72q-109 -92 -307 -92q-186 0 -308 94t-122 274t122 274.5t308 94.5q199 0 307 -92v51q0 104 -74.5 159.5t-201.5 55.5q-123 0 -193 -45l-168 61q119 137 361 137zM563 133q141 0 224 55.5 t83 160t-82.5 159.5t-224.5 55q-266 0 -266 -215t266 -215z" glyph-name="amacron" unicode="ā"/><glyph d="M707 1741h122q0 -102 -72.5 -174t-173 -72t-173 71.5t-72.5 174.5h123q0 -49 37 -86t86 -37q51 0 87 37t36 86zM809 436h-451l-133 -436h-180l449 1382h180l448 -1382h-180zM762 590l-178 586l-178 -586h356z" glyph-name="Abreve" unicode="Ă"/><glyph d="M717 1382h123q0 -100 -72 -172.5t-174 -72.5t-174 72.5t-72 172.5h123q0 -49 37 -85.5t86 -36.5q51 0 87 36.5t36 85.5zM594 1044q195 0 317.5 -98t122.5 -270v-676h-164v72q-109 -92 -307 -92q-186 0 -308 94t-122 274t122 274.5t308 94.5q199 0 307 -92v51 q0 104 -74.5 159.5t-201.5 55.5q-123 0 -193 -45l-168 61q119 137 361 137zM563 133q141 0 224 55.5t83 160t-82.5 159.5t-224.5 55q-266 0 -266 -215t266 -215z" glyph-name="abreve" unicode="ă"/><glyph d="M1307 -150l94 -106q-39 -76 -129 -113q-45 -16 -96 -16q-106 0 -180 74.5t-74 181.5q0 80 36 129h-16l-133 436h-451l-133 -436h-180l449 1382h180l448 -1382q-31 0 -49 -27.5t-22 -53t-2 -48.5q4 -53 39.5 -90t87.5 -37q47 0 85 30.5t46 75.5zM762 590l-178 586 l-178 -586h356z" glyph-name="Aogonek" unicode="Ą"/><glyph d="M1219 -150l94 -106q-39 -76 -129 -113q-45 -16 -97 -16q-106 0 -179.5 74.5t-73.5 181.5q0 80 36 129v72q-109 -92 -307 -92q-186 0 -308 94t-122 274t122 274.5t308 94.5q199 0 307 -92v51q0 104 -74.5 159.5t-201.5 55.5q-123 0 -193 -45l-168 61q119 137 361 137 q195 0 317.5 -98t122.5 -270v-676q-31 0 -49 -27.5t-22.5 -53t-1.5 -48.5q4 -53 39.5 -90t86.5 -37q47 0 85.5 30.5t46.5 75.5zM563 133q141 0 224 55.5t83 160t-82.5 159.5t-224.5 55q-266 0 -266 -215t266 -215z" glyph-name="aogonek" unicode="ą"/><glyph d="M670 1505h-172l198 236h172zM584 1403q205 0 329.5 -145.5t159.5 -387.5l-158 -57q-18 190 -99 313t-232 123q-92 0 -161 -49t-105.5 -132t-54 -177t-17.5 -198.5t17.5 -199t54 -178.5t105.5 -133t161 -49q152 0 232.5 124t98.5 314l158 -57q-33 -242 -159 -388 t-330 -146q-242 0 -372 200.5t-130 512t130 511t372 199.5z" glyph-name="Cacute" unicode="Ć"/><glyph d="M670 1147h-172l198 235h172zM584 1044q166 0 294 -98t175 -264l-156 -55q-31 119 -117 191.5t-196 72.5q-137 0 -232.5 -107.5t-95.5 -271.5t95 -271.5t233 -107.5q111 0 196.5 73t116.5 191l156 -55q-47 -166 -175 -264t-294 -98q-209 0 -350.5 149.5t-141.5 382.5 t141.5 382.5t350.5 149.5z" glyph-name="cacute" unicode="ć"/><glyph d="M584 1761q43 0 72.5 -29.5t29.5 -72.5q0 -41 -29.5 -72t-72.5 -31q-41 0 -72 31t-31 72q0 43 31 72.5t72 29.5zM584 1403q205 0 329.5 -145.5t159.5 -387.5l-158 -57q-18 190 -99 313t-232 123q-92 0 -161 -49t-105.5 -132t-54 -177t-17.5 -198.5t17.5 -199t54 -178.5 t105.5 -133t161 -49q152 0 232.5 124t98.5 314l158 -57q-33 -242 -159 -388t-330 -146q-242 0 -372 200.5t-130 512t130 511t372 199.5z" glyph-name="Cdotaccent" unicode="Ċ"/><glyph d="M584 1403q43 0 72.5 -30t29.5 -73q0 -41 -29.5 -71.5t-72.5 -30.5q-41 0 -72 31t-31 71q0 43 31 73t72 30zM584 1044q166 0 294 -98t175 -264l-156 -55q-31 119 -117 191.5t-196 72.5q-137 0 -232.5 -107.5t-95.5 -271.5t95 -271.5t233 -107.5q111 0 196.5 73t116.5 191 l156 -55q-47 -166 -175 -264t-294 -98q-209 0 -350.5 149.5t-141.5 382.5t141.5 382.5t350.5 149.5z" glyph-name="cdotaccent" unicode="ċ"/><glyph d="M645 1505h-123l-198 236h170l90 -117l90 117h170zM584 1403q205 0 329.5 -145.5t159.5 -387.5l-158 -57q-18 190 -99 313t-232 123q-92 0 -161 -49t-105.5 -132t-54 -177t-17.5 -198.5t17.5 -199t54 -178.5t105.5 -133t161 -49q152 0 232.5 124t98.5 314l158 -57 q-33 -242 -159 -388t-330 -146q-242 0 -372 200.5t-130 512t130 511t372 199.5z" glyph-name="Ccaron" unicode="Č"/><glyph d="M645 1147h-123l-198 235h170l90 -116l90 116h170zM584 1044q166 0 294 -98t175 -264l-156 -55q-31 119 -117 191.5t-196 72.5q-137 0 -232.5 -107.5t-95.5 -271.5t95 -271.5t233 -107.5q111 0 196.5 73t116.5 191l156 -55q-47 -166 -175 -264t-294 -98 q-209 0 -350.5 149.5t-141.5 382.5t141.5 382.5t350.5 149.5z" glyph-name="ccaron" unicode="č"/><glyph d="M608 1505h-123l-198 236h170l90 -117l90 117h170zM123 1382h293q291 0 470 -195.5t179 -494.5t-179 -495.5t-470 -196.5h-293v1382zM287 1229v-1075h129q209 0 347 155.5t138 383t-138 382t-347 154.5h-129z" glyph-name="Dcaron" unicode="Ď"/><glyph d="M932 1374l164 60v-1434h-164v121q-125 -141 -328 -141q-209 0 -350 149.5t-141 382.5t141 382.5t350 149.5q203 0 328 -141v471zM1249 1403q43 0 73 -30t30 -73q0 -18 -9 -43l-67 -186l-78 29l37 100q-37 4 -62.5 33t-25.5 67q0 43 30.5 73t71.5 30zM604 133 q137 0 232.5 107.5t95.5 271.5t-95.5 271.5t-232.5 107.5t-232.5 -107.5t-95.5 -271.5t95.5 -271.5t232.5 -107.5z" glyph-name="dcaron" unicode="ď"/><glyph d="M186 1382h293q291 0 470 -195.5t179 -494.5t-179 -495.5t-470 -196.5h-293v616h-127v154h127v612zM350 154h129q209 0 347.5 155.5t138.5 383t-138.5 382t-347.5 154.5h-129v-459h209v-154h-209v-462z" glyph-name="Dcroat" unicode="Đ"/><glyph d="M1143 1147h-68v-1147h-164v121q-125 -141 -327 -141q-209 0 -350.5 149.5t-141.5 382.5t141.5 382.5t350.5 149.5q203 0 327 -141v244h-157v153h157v74l164 60v-134h68v-153zM583.5 133q137.5 0 232.5 107.5t95 271.5t-95 271.5t-232.5 107.5t-232.5 -107.5t-95 -271.5 t95 -271.5t232.5 -107.5z" glyph-name="dcroat" unicode="đ"/><glyph d="M870 1587h-573v154h573v-154zM1024 1229h-717v-434h565v-154h-565v-487h717v-154h-881v1382h881v-153z" glyph-name="Emacron" unicode="Ē"/><glyph d="M870 1229h-573v153h573v-153zM584 1044q197 0 339 -150.5t142 -381.5q0 -25 -4 -74h-789q23 -135 112 -220t210 -85q178 0 270 162l158 -57q-66 -121 -178.5 -189.5t-249.5 -68.5q-209 0 -350.5 149.5t-141.5 382.5t137.5 382.5t344.5 149.5zM584 891q-119 0 -204 -83 t-108 -216h623q-23 129 -114 214t-197 85z" glyph-name="emacron" unicode="ē"/><glyph d="M584 1761q43 0 72.5 -29.5t29.5 -72.5q0 -41 -29.5 -72t-72.5 -31q-41 0 -72 31t-31 72q0 43 31 72.5t72 29.5zM1024 1229h-717v-434h565v-154h-565v-487h717v-154h-881v1382h881v-153z" glyph-name="Edotaccent" unicode="Ė"/><glyph d="M584 1403q43 0 72.5 -30t29.5 -73q0 -41 -29.5 -71.5t-72.5 -30.5q-41 0 -72 31t-31 71q0 43 31 73t72 30zM584 1044q197 0 339 -150.5t142 -381.5q0 -25 -4 -74h-789q23 -135 112 -220t210 -85q178 0 270 162l158 -57q-66 -121 -178.5 -189.5t-249.5 -68.5 q-209 0 -350.5 149.5t-141.5 382.5t137.5 382.5t344.5 149.5zM584 891q-119 0 -204 -83t-108 -216h623q-23 129 -114 214t-197 85z" glyph-name="edotaccent" unicode="ė"/><glyph d="M1208 -150l95 -106q-39 -76 -129 -113q-45 -16 -97 -16q-106 0 -180 74.5t-74 181.5q0 80 37 129h-717v1382h881v-153h-717v-434h565v-154h-565v-487h717v-154q-31 0 -49.5 -27.5t-22.5 -53t-2 -48.5q4 -53 40 -90t87 -37q47 0 85 30.5t46 75.5z" glyph-name="Eogonek" unicode="Ę"/><glyph d="M1065 512q0 -25 -4 -74h-789q23 -135 112 -220t210 -85q178 0 270 162l158 -57q-98 -180 -287 -238h45q-31 0 -49 -27.5t-22 -53t-2 -48.5q4 -53 39.5 -90t87.5 -37q47 0 84.5 30.5t46.5 75.5l94 -106q-39 -76 -129 -113q-45 -16 -96 -16q-106 0 -180 74.5t-74 181.5 q0 66 24 109h-10q-209 0 -350.5 149.5t-141.5 382.5t137.5 382.5t344.5 149.5q197 0 339 -150.5t142 -381.5zM272 592h623q-23 129 -114 214t-197 85q-119 0 -204 -83t-108 -216z" glyph-name="eogonek" unicode="ę"/><glyph d="M645 1505h-123l-198 236h170l90 -117l90 117h170zM1024 1229h-717v-434h565v-154h-565v-487h717v-154h-881v1382h881v-153z" glyph-name="Ecaron" unicode="Ě"/><glyph d="M645 1147h-123l-198 235h170l90 -116l90 116h170zM584 1044q197 0 339 -150.5t142 -381.5q0 -25 -4 -74h-789q23 -135 112 -220t210 -85q178 0 270 162l158 -57q-66 -121 -178.5 -189.5t-249.5 -68.5q-209 0 -350.5 149.5t-141.5 382.5t137.5 382.5t344.5 149.5zM584 891 q-119 0 -204 -83t-108 -216h623q-23 129 -114 214t-197 85z" glyph-name="ecaron" unicode="ě"/><glyph d="M481.5 1495q-100.5 0 -173 71.5t-72.5 174.5h122q0 -49 37 -86t86 -37q51 0 87 37t36 86h123q0 -102 -72.5 -174t-173 -72zM1118 578h-127q-33 -598 -452 -598q-215 0 -340 203.5t-125 508.5t125 508t340 203q168 0 284.5 -119t161.5 -319l-151 -56q-31 152 -105 246 t-190 94q-150 0 -225.5 -167t-75.5 -390t75.5 -391t225.5 -168q86 0 144 36t88 103.5t42 138t16 167.5h-303v153h592v-153z" glyph-name="Gbreve" unicode="Ğ"/><glyph d="M713 1382h123q0 -100 -72 -172.5t-174.5 -72.5t-174 72.5t-71.5 172.5h123q0 -49 37 -85.5t86 -36.5q51 0 87 36.5t36 85.5zM473 143h246q125 0 211 -76.5t86 -199.5q0 -115 -87 -196t-210 -81h-246q-123 0 -210 80t-87 197q0 98 82 184q-113 76 -113 225q0 111 103 191 q-47 84 -47 188q0 162 113.5 275.5t275.5 113.5q78 0 147 -28l254 90l51 -143l-155 -58q92 -109 92 -250q0 -162 -113.5 -275.5t-275.5 -113.5q-141 0 -244 84q-37 -29 -37 -74q0 -80 45 -106.5t119 -26.5zM590 891q-92 0 -158.5 -70.5t-66.5 -165t66.5 -165t158.5 -70.5 t158.5 70.5t66.5 165t-66.5 165t-158.5 70.5zM729 -10h-266q-51 0 -87 -36t-36 -87t36 -87t87 -36h266q51 0 87 36t36 87t-36 87t-87 36z" glyph-name="gbreve" unicode="ğ"/><glyph d="M481 1556q-41 0 -71.5 31t-30.5 72q0 43 30.5 72.5t71.5 29.5q43 0 73 -29.5t30 -72.5q0 -41 -30 -72t-73 -31zM1118 578h-127q-33 -598 -452 -598q-215 0 -340 203.5t-125 508.5t125 508t340 203q168 0 284.5 -119t161.5 -319l-151 -56q-31 152 -105 246t-190 94 q-150 0 -225.5 -167t-75.5 -390t75.5 -391t225.5 -168q86 0 144 36t88 103.5t42 138t16 167.5h-303v153h592v-153z" glyph-name="Gdotaccent" unicode="Ġ"/><glyph d="M590 1403q43 0 72.5 -30t29.5 -73q0 -41 -29.5 -71.5t-72.5 -30.5q-41 0 -72 31t-31 71q0 43 31 73t72 30zM473 143h246q125 0 211 -76.5t86 -199.5q0 -115 -87 -196t-210 -81h-246q-123 0 -210 80t-87 197q0 98 82 184q-113 76 -113 225q0 111 103 191q-47 84 -47 188 q0 162 113.5 275.5t275.5 113.5q78 0 147 -28l254 90l51 -143l-155 -58q92 -109 92 -250q0 -162 -113.5 -275.5t-275.5 -113.5q-141 0 -244 84q-37 -29 -37 -74q0 -80 45 -106.5t119 -26.5zM590 891q-92 0 -158.5 -70.5t-66.5 -165t66.5 -165t158.5 -70.5t158.5 70.5 t66.5 165t-66.5 165t-158.5 70.5zM729 -10h-266q-51 0 -87 -36t-36 -87t36 -87t87 -36h266q51 0 87 36t36 87t-36 87t-87 36z" glyph-name="gdotaccent" unicode="ġ"/><glyph d="M1118 578h-127q-33 -598 -452 -598q-215 0 -340 203.5t-125 508.5t125 508t340 203q168 0 284.5 -119t161.5 -319l-151 -56q-31 152 -105 246t-190 94q-150 0 -225.5 -167t-75.5 -390t75.5 -391t225.5 -168q86 0 144 36t88 103.5t42 138t16 167.5h-303v153h592v-153z M588 -98q43 0 72.5 -30t29.5 -73q0 -18 -8 -43l-68 -186l-77 29l36 100q-37 4 -62.5 32.5t-25.5 67.5q0 43 31 73t72 30z" glyph-name="Gcommaaccent" unicode="Ģ"/><glyph d="M586 1174q-43 0 -73 29.5t-30 72.5q0 18 9 43l67 186l78 -28l-37 -101q37 -4 62.5 -32.5t25.5 -67.5q0 -43 -30.5 -72.5t-71.5 -29.5zM494 143h245q125 0 211 -76.5t86 -199.5q0 -115 -87 -196t-210 -81h-245q-123 0 -210 80t-87 197q0 98 82 184q-113 76 -113 225 q0 111 102 191q-47 84 -47 188q0 162 114 275.5t275 113.5q78 0 148 -28l254 90l51 -143l-156 -58q92 -109 92 -250q0 -162 -113.5 -275.5t-275.5 -113.5q-141 0 -243 84q-37 -29 -37 -74q0 -80 45 -106.5t119 -26.5zM610 891q-92 0 -158.5 -70.5t-66.5 -165t66.5 -165 t158.5 -70.5t159 70.5t67 165t-67 165t-159 70.5zM483 -256h267q51 0 86.5 36t35.5 87t-35.5 87t-86.5 36h-267q-51 0 -87 -36t-36 -87t36 -87t87 -36z" glyph-name="gcommaaccent" unicode="ģ"/><glyph d="M1106 1030h-62v-1030h-163v641h-594v-641h-164v1030h-60v154h60v198h164v-198h594v198h163v-198h62v-154zM881 1030h-594v-235h594v235z" glyph-name="Hbar" unicode="Ħ"/><glyph d="M604 1044q188 0 309 -133t121 -327v-584h-164v584q0 127 -73.5 217t-192.5 90q-123 0 -215 -92t-92 -215v-584h-164v1147h-90v153h90v74l164 60v-134h135v-153h-135v-234q125 131 307 131z" glyph-name="hbar" unicode="ħ"/><glyph d="M870 1587h-573v154h573v-154zM666 1229v-1075h378v-154h-921v154h379v1075h-379v153h921v-153h-378z" glyph-name="Imacron" unicode="Ī"/><glyph d="M870 1229h-573v153h573v-153zM1044 154v-154h-921v154h379v716h-285l55 154h394v-870h378z" glyph-name="imacron" unicode="ī"/><glyph d="M1229 -150l94 -106q-39 -76 -129 -113q-45 -16 -96 -16q-106 0 -180 74.5t-74 181.5q0 80 37 129h-758v154h379v1075h-379v153h921v-153h-378v-1075h378v-154q-31 0 -49 -27.5t-22 -53t-2 -48.5q4 -53 40 -90t87 -37q47 0 85 30.5t46 75.5z" glyph-name="Iogonek" unicode="Į"/><glyph d="M584 1198q-41 0 -72 31t-31 71q0 43 31 73t72 30q43 0 72.5 -30t29.5 -73q0 -41 -29.5 -71.5t-72.5 -30.5zM1044 0h-378q-31 0 -49.5 -27.5t-22.5 -53t-2 -48.5q4 -53 40 -90t87 -37q47 0 85 30.5t46 75.5l94 -106q-39 -76 -129 -113q-45 -16 -96 -16q-106 0 -180 74.5 t-74 181.5q0 80 37 129h-379v154h379v716h-285l55 154h394v-870h378v-154z" glyph-name="iogonek" unicode="į"/><glyph d="M584 1761q43 0 72.5 -29.5t29.5 -72.5q0 -41 -29.5 -72t-72.5 -31q-41 0 -72 31t-31 72q0 43 31 72.5t72 29.5zM666 1229v-1075h378v-154h-921v154h379v1075h-379v153h921v-153h-378z" glyph-name="Idotaccent" unicode="İ"/><glyph d="M1044 154v-154h-921v154h379v716h-285l55 154h394v-870h378z" glyph-name="dotlessi" unicode="ı"/><glyph d="M123 1382h164v-1382h-164v1382zM1044 1382v-942q0 -190 -135 -325t-325 -135q-20 0 -58 4q-53 6 -102 24l53 146q55 -20 107 -21q123 0 210 92t87 215v942h163z" glyph-name="IJ" unicode="Ĳ"/><glyph d="M592 1198q-41 0 -72 31t-31 71q0 43 31 73t72 30q43 0 72.5 -30t29.5 -73q0 -41 -29.5 -71.5t-72.5 -30.5zM936 1198q-41 0 -71.5 31t-30.5 71q0 43 30.5 73t71.5 30q43 0 72.5 -30t29.5 -73q0 -41 -29.5 -71.5t-72.5 -30.5zM131 0v154h379v716h-285l56 154h393v-1024 h-543zM854 1024h164v-1044q0 -168 -120 -289t-290 -121q-106 0 -198.5 52t-149.5 140l158 58q76 -96 190 -96q100 0 173 76.5t73 179.5v1044z" glyph-name="ij" unicode="ĳ"/><glyph d="M336 588l-49 -60v-528h-164v1382h164v-596l499 596h218l-560 -667l600 -715h-217zM616 -98q43 0 73 -30t30 -73q0 -18 -8 -43l-68 -186l-78 29l37 100q-37 4 -62.5 32.5t-25.5 67.5q0 43 30.5 73t71.5 30z" glyph-name="Kcommaaccent" unicode="Ķ"/><glyph d="M451 377l-134 -160v-217h-163v1374l163 60v-959l461 549h215l-436 -520l457 -504h-215zM635 -98q43 0 72.5 -30t29.5 -73q0 -18 -8 -43l-67 -186l-78 29l37 100q-37 4 -63 32.5t-26 67.5q0 43 31 73t72 30z" glyph-name="kcommaaccent" unicode="ķ"/><glyph d="M209 1505h-172l199 236h172zM307 154h717v-154h-881v1382h164v-1228z" glyph-name="Lacute" unicode="Ĺ"/><glyph d="M455 1505h-172l198 236h172zM885 229l157 -57q-57 -88 -149 -140t-199 -52q-168 0 -287.5 119.5t-119.5 289.5v840h-162l55 153h271v-993q0 -102 71.5 -179t171.5 -77q115 0 191 96z" glyph-name="lacute" unicode="ĺ"/><glyph d="M307 154h717v-154h-881v1382h164v-1228zM604 -98q43 0 73 -30t30 -73q0 -18 -9 -43l-67 -186l-78 29l37 100q-37 4 -62.5 32.5t-25.5 67.5q0 43 30.5 73t71.5 30z" glyph-name="Lcommaaccent" unicode="Ļ"/><glyph d="M885 229l157 -57q-57 -88 -149 -140t-199 -52q-168 0 -287.5 119.5t-119.5 289.5v840h-162l55 153h271v-993q0 -102 71.5 -179t171.5 -77q115 0 191 96zM694 -98q43 0 73 -30t30 -73q0 -18 -9 -43l-67 -186l-78 29l37 100q-37 4 -62.5 32.5t-25.5 67.5q0 43 30.5 73 t71.5 30z" glyph-name="lcommaaccent" unicode="ļ"/><glyph d="M1034 1403q43 0 73 -30t30 -73q0 -18 -9 -43l-67 -186l-78 29l37 100q-37 4 -62.5 33t-25.5 67q0 43 30.5 73t71.5 30zM307 154h717v-154h-881v1382h164v-1228z" glyph-name="Lcaron" unicode="Ľ"/><glyph d="M860 1100l37 100q-37 4 -62.5 33t-25.5 67q0 43 30.5 73t71.5 30q43 0 73 -30t30 -73q0 -18 -8 -43l-68 -186zM905 229l158 -57q-57 -88 -149.5 -140t-198.5 -52q-168 0 -288 119.5t-120 289.5v840h-162l56 153h270v-993q0 -102 71.5 -179t172.5 -77q114 0 190 96z" glyph-name="lcaron" unicode="ľ"/><glyph d="M307 154h717v-154h-881v1382h164v-1228zM856 881q43 0 72.5 -30t29.5 -73q0 -41 -29.5 -71.5t-72.5 -30.5q-41 0 -71.5 30.5t-30.5 71.5q0 43 30.5 73t71.5 30z" glyph-name="Ldot" unicode="Ŀ"/><glyph d="M905 229l158 -57q-57 -88 -149.5 -140t-198.5 -52q-168 0 -288 119.5t-120 289.5v840h-162l56 153h270v-993q0 -102 71.5 -179t172.5 -77q114 0 190 96zM891 676q-41 0 -72 30.5t-31 71.5q0 43 31 73t72 30q43 0 72.5 -30t29.5 -73q0 -41 -29.5 -71.5t-72.5 -30.5z" glyph-name="ldot" unicode="ŀ"/><glyph d="M1198 154v-154h-881v612l-194 -41v154l194 41v616h164v-579l215 45v-154l-215 -45v-495h717z" glyph-name="Lslash" unicode="Ł"/><glyph d="M1090 229l157 -57q-57 -88 -149 -140t-199 -52q-168 0 -287.5 119.5t-119.5 289.5v238l-226 -49v153l226 49v449h-162l55 153h270v-567l185 39v-154l-185 -38v-273q0 -102 72 -179t172 -77q115 0 191 96z" glyph-name="lslash" unicode="ł"/><glyph d="M670 1505h-172l198 236h172zM1047 0h-164l-596 1065v-1065h-164v1382h164l596 -1065v1065h164v-1382z" glyph-name="Nacute" unicode="Ń"/><glyph d="M690 1147h-172l199 235h172zM604 1044q188 0 309 -133t121 -327v-584h-164v584q0 127 -73.5 217t-192.5 90q-123 0 -215 -92t-92 -215v-584h-164v1024h164v-111q125 131 307 131z" glyph-name="nacute" unicode="ń"/><glyph d="M1047 0h-164l-596 1065v-1065h-164v1382h164l596 -1065v1065h164v-1382zM584 -98q43 0 72.5 -30t29.5 -73q0 -18 -8 -43l-68 -186l-78 29l37 100q-37 4 -62.5 32.5t-25.5 67.5q0 43 31 73t72 30z" glyph-name="Ncommaaccent" unicode="Ņ"/><glyph d="M604 1044q188 0 309 -133t121 -327v-584h-164v584q0 127 -73.5 217t-192.5 90q-123 0 -215 -92t-92 -215v-584h-164v1024h164v-111q125 131 307 131zM584 -98q43 0 72.5 -30t29.5 -73q0 -18 -8 -43l-68 -186l-78 29l37 100q-37 4 -62.5 32.5t-25.5 67.5q0 43 31 73t72 30 z" glyph-name="ncommaaccent" unicode="ņ"/><glyph d="M645 1505h-123l-198 236h170l90 -117l90 117h170zM1047 0h-164l-596 1065v-1065h-164v1382h164l596 -1065v1065h164v-1382z" glyph-name="Ncaron" unicode="Ň"/><glyph d="M666 1147h-123l-199 235h170l90 -116l90 116h170zM604 1044q188 0 309 -133t121 -327v-584h-164v584q0 127 -73.5 217t-192.5 90q-123 0 -215 -92t-92 -215v-584h-164v1024h164v-111q125 131 307 131z" glyph-name="ncaron" unicode="ň"/><glyph d="M1067 1382v-1382q0 -154 -108.5 -261.5t-260.5 -107.5v154q80 0 142.5 71.5t62.5 143.5l-596 1065v-1065h-164v1382h164l596 -1065v1065h164z" glyph-name="Eng" unicode="Ŋ"/><glyph d="M604 1044q188 0 309 -133t121 -327v-584q0 -152 -109.5 -260.5t-258.5 -108.5v154q80 0 142 71.5t62 143.5v584q0 127 -73.5 217t-192.5 90q-123 0 -215 -92t-92 -215v-584h-164v1024h164v-111q125 131 307 131z" glyph-name="eng" unicode="ŋ"/><glyph d="M874 1587h-573v154h573v-154zM588 1403q240 0 368.5 -199.5t128.5 -511t-129 -512t-368 -200.5q-242 0 -374 201.5t-132 510.5t132 510t374 201zM588 1249q-92 0 -162 -49t-107.5 -132t-55 -177t-17.5 -198.5t17.5 -199t55 -178.5t107.5 -133t162 -49t159.5 49t104.5 133 t53.5 178.5t16.5 199t-16.5 198.5t-53.5 177t-104.5 132t-159.5 49z" glyph-name="Omacron" unicode="Ō"/><glyph d="M870 1229h-573v153h573v-153zM584 1044q209 0 350 -149.5t141 -382.5t-141 -382.5t-350 -149.5t-350.5 149.5t-141.5 382.5t141.5 382.5t350.5 149.5zM583.5 891q-137.5 0 -232.5 -107.5t-95 -271.5t95 -271.5t232.5 -107.5t232.5 107.5t95 271.5t-95 271.5t-232.5 107.5 z" glyph-name="omacron" unicode="ō"/><glyph d="M528 1505h-172l199 236h172zM817 1505h-172l199 236h172zM588 1403q240 0 368.5 -199.5t128.5 -511t-129 -512t-368 -200.5q-242 0 -374 201.5t-132 510.5t132 510t374 201zM588 1249q-92 0 -162 -49t-107.5 -132t-55 -177t-17.5 -198.5t17.5 -199t55 -178.5t107.5 -133 t162 -49t159.5 49t104.5 133t53.5 178.5t16.5 199t-16.5 198.5t-53.5 177t-104.5 132t-159.5 49z" glyph-name="Ohungarumlaut" unicode="Ő"/><glyph d="M524 1147h-172l199 235h172zM813 1147h-172l199 235h172zM584 1044q209 0 350 -149.5t141 -382.5t-141 -382.5t-350 -149.5t-350.5 149.5t-141.5 382.5t141.5 382.5t350.5 149.5zM583.5 891q-137.5 0 -232.5 -107.5t-95 -271.5t95 -271.5t232.5 -107.5t232.5 107.5 t95 271.5t-95 271.5t-232.5 107.5z" glyph-name="ohungarumlaut" unicode="ő"/><glyph d="M772 1229v-434h182v-154h-182v-487h272v-154h-436q-244 0 -375 192.5t-131 499.5t131.5 498.5t374.5 191.5h436v-153h-272zM608 154v1075q-123 0 -202.5 -82t-109.5 -196.5t-30 -258t30 -258.5t109.5 -197.5t202.5 -82.5z" glyph-name="OE" unicode="Œ"/><glyph d="M672 438v-295q133 37 198 152l158 -57q-63 -119 -181 -188.5t-257 -69.5q-209 0 -350.5 149.5t-141.5 382.5t141.5 382.5t350.5 149.5q197 0 339 -150.5t142 -381.5q0 -25 -4 -74h-395zM262 512q0 -135 68.5 -236.5t177.5 -132.5v738q-109 -31 -177.5 -132.5 t-68.5 -236.5zM672 592h229q-18 102 -81.5 179t-147.5 106v-285z" glyph-name="oe" unicode="œ"/><glyph d="M567 1505h-172l199 236h172zM1024 963q0 -145 -90 -259t-229 -149l319 -555h-190l-314 543h-213v-543h-164v1382h461q174 0 297 -122.5t123 -296.5zM307 696h297q104 0 180 80t76 186.5t-75.5 186.5t-180.5 80h-297v-533z" glyph-name="Racute" unicode="Ŕ"/><glyph d="M303 1147h-172l199 235h172zM606 1044q172 0 290 -114.5t136 -288.5l-160 -57q0 127 -73.5 217t-192.5 90q-123 0 -215 -92t-92 -215v-584h-164v1024h164v-111q125 131 307 131z" glyph-name="racute" unicode="ŕ"/><glyph d="M1024 963q0 -145 -90 -259t-229 -149l319 -555h-190l-314 543h-213v-543h-164v1382h461q174 0 297 -122.5t123 -296.5zM307 696h297q104 0 180 80t76 186.5t-75.5 186.5t-180.5 80h-297v-533zM584 -98q43 0 72.5 -30t29.5 -73q0 -18 -8 -43l-68 -186l-78 29l37 100 q-37 4 -62.5 32.5t-25.5 67.5q0 43 31 73t72 30z" glyph-name="Rcommaaccent" unicode="Ŗ"/><glyph d="M606 1044q172 0 290 -114.5t136 -288.5l-160 -57q0 127 -73.5 217t-192.5 90q-123 0 -215 -92t-92 -215v-584h-164v1024h164v-111q125 131 307 131zM217 -98q43 0 72.5 -30t29.5 -73q0 -18 -8 -43l-67 -186l-78 29l37 100q-37 4 -62.5 32.5t-25.5 67.5q0 43 30.5 73 t71.5 30z" glyph-name="rcommaaccent" unicode="ŗ"/><glyph d="M543 1505h-123l-199 236h170l90 -117l90 117h170zM1024 963q0 -145 -90 -259t-229 -149l319 -555h-190l-314 543h-213v-543h-164v1382h461q174 0 297 -122.5t123 -296.5zM307 696h297q104 0 180 80t76 186.5t-75.5 186.5t-180.5 80h-297v-533z" glyph-name="Rcaron" unicode="Ř"/><glyph d="M279 1147h-123l-199 235h170l90 -116l90 116h170zM606 1044q172 0 290 -114.5t136 -288.5l-160 -57q0 127 -73.5 217t-192.5 90q-123 0 -215 -92t-92 -215v-584h-164v1024h164v-111q125 131 307 131z" glyph-name="rcaron" unicode="ř"/><glyph d="M668 1505h-172l198 236h172zM313 1034q0 -80 53.5 -131t133.5 -73.5t173 -54.5t173 -67.5t133 -117.5t53 -201q0 -195 -133 -302t-338 -107q-152 0 -268.5 72.5t-157.5 189.5l154 55q23 -74 96.5 -119t175.5 -45q133 0 220 66.5t87 189.5q0 72 -40 120t-103 73.5t-140 46 t-153 48.5t-139.5 66.5t-103 112.5t-39.5 178q0 162 124.5 265.5t307.5 103.5q139 0 241.5 -79t145.5 -210l-152 -55q-18 86 -78.5 138t-156.5 52q-121 0 -195 -65.5t-74 -149.5z" glyph-name="Sacute" unicode="Ś"/><glyph d="M684 1147h-172l199 235h172zM598 1044q289 0 373 -229l-154 -55q-23 66 -69 98.5t-150 32.5t-162.5 -41t-58.5 -105q0 -55 65.5 -88.5t158.5 -55t186.5 -51.5t159 -95.5t65.5 -167.5q0 -145 -119 -226t-309 -81q-164 0 -273.5 72.5t-154.5 195.5l153 57q59 -172 275 -172 q152 0 208 48t56 106q0 55 -65.5 89t-159 55.5t-186.5 51t-158.5 96t-65.5 166.5q0 143 104.5 221t280.5 78z" glyph-name="sacute" unicode="ś"/><glyph d="M1032 389q0 -174 -108.5 -279.5t-282.5 -125.5l-14 -72q57 -39 57 -121q0 -106 -73.5 -174t-182.5 -68q-150 0 -219 127l94 109q2 -47 40 -81t85 -34q51 0 86 35t35 86t-36 86t-91 35l14 82q-109 25 -188.5 91.5t-112.5 156.5l154 55q23 -74 96.5 -119t175.5 -45 q133 0 220 66.5t87 189.5q0 72 -40 120t-103 73.5t-140 46t-153 48.5t-139.5 66.5t-103 112.5t-39.5 178q0 162 124.5 265.5t307.5 103.5q139 0 241.5 -79t145.5 -210l-152 -55q-18 86 -78.5 138t-156.5 52q-121 0 -195 -65.5t-74 -149.5q0 -80 53.5 -131t133.5 -73.5 t173 -54.5t173 -67.5t133 -117.5t53 -201z" glyph-name="Scedilla" unicode="Ş"/><glyph d="M1012 287q0 -125 -89 -203t-239 -98l-14 -74q57 -39 57 -121q0 -106 -73.5 -174t-182.5 -68q-150 0 -219 127l94 109q2 -47 40 -81t85 -34q51 0 86 35t35 86t-36 86t-91 35l14 76q-246 45 -323 260l153 57q59 -172 275 -172q152 0 208 48t56 106q0 55 -65.5 89t-159 55.5 t-186.5 51t-158.5 96t-65.5 166.5q0 143 104.5 221t280.5 78q289 0 373 -229l-154 -55q-23 66 -69 98.5t-150 32.5t-162.5 -41t-58.5 -105q0 -55 65.5 -88.5t158.5 -55t186.5 -51.5t159 -95.5t65.5 -167.5z" glyph-name="scedilla" unicode="ş"/><glyph d="M643 1505h-123l-198 236h170l90 -117l90 117h170zM313 1034q0 -80 53.5 -131t133.5 -73.5t173 -54.5t173 -67.5t133 -117.5t53 -201q0 -195 -133 -302t-338 -107q-152 0 -268.5 72.5t-157.5 189.5l154 55q23 -74 96.5 -119t175.5 -45q133 0 220 66.5t87 189.5 q0 72 -40 120t-103 73.5t-140 46t-153 48.5t-139.5 66.5t-103 112.5t-39.5 178q0 162 124.5 265.5t307.5 103.5q139 0 241.5 -79t145.5 -210l-152 -55q-18 86 -78.5 138t-156.5 52q-121 0 -195 -65.5t-74 -149.5z" glyph-name="Scaron" unicode="Š"/><glyph d="M659 1147h-122l-199 235h170l90 -116l90 116h170zM598 1044q289 0 373 -229l-154 -55q-23 66 -69 98.5t-150 32.5t-162.5 -41t-58.5 -105q0 -55 65.5 -88.5t158.5 -55t186.5 -51.5t159 -95.5t65.5 -167.5q0 -145 -119 -226t-309 -81q-164 0 -273.5 72.5t-154.5 195.5 l153 57q59 -172 275 -172q152 0 208 48t56 106q0 55 -65.5 89t-159 55.5t-186.5 51t-158.5 96t-65.5 166.5q0 143 104.5 221t280.5 78z" glyph-name="scaron" unicode="š"/><glyph d="M666 1229v-1213h20v-16l-16 -88q57 -39 57 -121q0 -106 -73.5 -174t-182.5 -68q-150 0 -219 127l94 109q2 -47 40 -81t85 -34q51 0 86 35t35 86t-36 86t-91 35l16 88v10h21v1219h-389v153h942v-153h-389z" glyph-name="Tcommaaccent" unicode="Ţ"/><glyph d="M915 229l158 -57q-88 -139 -248 -180l-14 -80q57 -39 57 -121q0 -106 -73.5 -174t-182.5 -68q-150 0 -219 127l94 109q2 -47 40 -81t85 -34q51 0 86 35t35 86t-35.5 86t-91.5 35l15 82q-131 35 -217.5 145.5t-86.5 249.5v432h-235v154h235v399l164 60v-459h420v-154h-420 v-432q0 -102 72 -179t172 -77q114 0 190 96z" glyph-name="tcommaaccent" unicode="ţ"/><glyph d="M645 1505h-123l-198 236h170l90 -117l90 117h170zM1055 1229h-389v-1229h-164v1229h-389v153h942v-153z" glyph-name="Tcaron" unicode="Ť"/><glyph d="M936 229l158 -57q-57 -88 -149.5 -140t-199.5 -52q-168 0 -287.5 119.5t-119.5 289.5v432h-236v154h236v399l164 60v-459h420v-154h-420v-432q0 -102 71.5 -179t171.5 -77q115 0 191 96zM881 1100l37 100q-37 4 -63 33t-26 67q0 43 31 73t72 30q43 0 72.5 -30t29.5 -73 q0 -18 -8 -43l-68 -186z" glyph-name="tcaron" unicode="ť"/><glyph d="M870 1587h-573v154h573v-154zM1055 1229h-389v-1229h-164v1229h-389v153h942v-153z" glyph-name="Tbar" unicode="Ŧ"/><glyph d="M915 229l158 -57q-57 -88 -149.5 -140t-198.5 -52q-168 0 -288 119.5t-120 289.5v432h-235v154h235v131h-194v154h194v114l164 60v-174h215v-154h-215v-131h420v-154h-420v-432q0 -102 72 -179t172 -77q114 0 190 96z" glyph-name="tbar" unicode="ŧ"/><glyph d="M870 1587h-573v154h573v-154zM1044 1382v-942q0 -190 -135 -325t-325.5 -135t-325.5 135t-135 325v942h164v-942q0 -123 87 -215t210 -92t210 92t87 215v942h163z" glyph-name="Umacron" unicode="Ū"/><glyph d="M870 1229h-573v153h573v-153zM1034 1024v-1024h-164v111q-125 -131 -307 -131q-188 0 -309 133t-121 327v584h164v-584q0 -127 73.5 -217t192.5 -90q123 0 215 92t92 215v584h164z" glyph-name="umacron" unicode="ū"/><glyph d="M584 1915q84 0 144 -60.5t60 -144.5t-60 -144.5t-144 -60.5t-144.5 60.5t-60.5 144.5t60.5 144.5t144.5 60.5zM584 1812q-41 0 -72 -29.5t-31 -72.5q0 -41 31 -71.5t72 -30.5q43 0 72.5 30.5t29.5 71.5q0 43 -29.5 72.5t-72.5 29.5zM1044 1382v-942q0 -190 -135 -325 t-325.5 -135t-325.5 135t-135 325v942h164v-942q0 -123 87 -215t210 -92t210 92t87 215v942h163z" glyph-name="Uring" unicode="Ů"/><glyph d="M584 1147q-84 0 -144.5 60.5t-60.5 144.5t60.5 144t144.5 60t144 -60t60 -144t-60 -144.5t-144 -60.5zM584 1454q-41 0 -72 -29.5t-31 -72.5q0 -41 31 -72t72 -31q43 0 72.5 31t29.5 72q0 43 -29.5 72.5t-72.5 29.5zM1034 1024v-1024h-164v111q-125 -131 -307 -131 q-188 0 -309 133t-121 327v584h164v-584q0 -127 73.5 -217t192.5 -90q123 0 215 92t92 215v584h164z" glyph-name="uring" unicode="ů"/><glyph d="M524 1505h-172l199 236h172zM813 1505h-172l199 236h172zM1044 1382v-942q0 -190 -135 -325t-325.5 -135t-325.5 135t-135 325v942h164v-942q0 -123 87 -215t210 -92t210 92t87 215v942h163z" glyph-name="Uhungarumlaut" unicode="Ű"/><glyph d="M524 1147h-172l199 235h172zM641 1147l199 235h172l-199 -235h-172zM1034 1024v-1024h-164v111q-125 -131 -307 -131q-188 0 -309 133t-121 327v584h164v-584q0 -127 73.5 -217t192.5 -90q123 0 215 92t92 215v584h164z" glyph-name="uhungarumlaut" unicode="ű"/><glyph d="M987 -150l94 -106q-39 -76 -129 -113q-45 -16 -96 -16q-106 0 -180 74.5t-74 181.5q0 63 25 111q-14 -2 -43 -2q-190 0 -325.5 135t-135.5 325v942h164v-942q0 -123 87 -215t210 -92t210 92t87 215v942h163v-942q0 -154 -91 -275.5t-234 -164.5h84q-31 0 -49.5 -27.5 t-22.5 -53t-2 -48.5q4 -53 40 -90t87 -37q47 0 85 30.5t46 75.5z" glyph-name="Uogonek" unicode="Ų"/><glyph d="M1219 -150l94 -106q-39 -76 -129 -113q-45 -16 -97 -16q-106 0 -179.5 74.5t-73.5 181.5q0 80 36 129v111q-125 -131 -307 -131q-188 0 -309 133t-121 327v584h164v-584q0 -127 73.5 -217t192.5 -90q123 0 215 92t92 215v584h164v-1024q-31 0 -49 -27.5t-22.5 -53 t-1.5 -48.5q4 -53 39.5 -90t86.5 -37q47 0 85.5 30.5t46.5 75.5z" glyph-name="uogonek" unicode="ų"/><glyph d="M844 1505h-170l-90 117l-90 -117h-170l198 236h123zM856 0h-168l-104 657l-105 -657h-170l-243 1382h170l159 -1013l107 678h164l106 -678l160 1013h168z" glyph-name="Wcircumflex" unicode="Ŵ"/><glyph d="M844 1147h-170l-90 117l-90 -117h-170l198 235h123zM856 0h-164l-108 637l-109 -637h-164l-202 1024h163l123 -655l80 473h217l80 -473l123 655h162z" glyph-name="wcircumflex" unicode="ŵ"/><glyph d="M844 1505h-170l-90 117l-90 -117h-170l198 236h123zM1057 1382l-391 -798v-584h-164v584l-391 798h188l285 -620l284 620h189z" glyph-name="Ycircumflex" unicode="Ŷ"/><glyph d="M494 1147h-170l198 235h123l199 -235h-170l-90 117zM1057 1024l-391 -1024v-350l-164 -60v410l-391 1024h182l291 -836l290 836h183z" glyph-name="ycircumflex" unicode="ŷ"/><glyph d="M410 1761q43 0 72.5 -29.5t29.5 -72.5q0 -41 -29.5 -72t-72.5 -31q-41 0 -72 31t-31 72q0 43 31 72.5t72 29.5zM758 1761q43 0 72.5 -29.5t29.5 -72.5q0 -41 -29.5 -72t-72.5 -31q-41 0 -72 31t-31 72q0 43 31 72.5t72 29.5zM1057 1382l-391 -798v-584h-164v584l-391 798 h188l285 -620l284 620h189z" glyph-name="Ydieresis" unicode="Ÿ"/><glyph d="M670 1505h-172l198 236h172zM1063 1229l-305 -434h151v-154h-258l-342 -487h754v-154h-957v154l343 487h-187v154h293l305 434h-754v153h957v-153z" glyph-name="Zacute" unicode="Ź"/><glyph d="M670 1147h-172l198 235h172zM1040 870l-700 -716h700v-154h-913v154l700 716h-700v154h913v-154z" glyph-name="zacute" unicode="ź"/><glyph d="M584 1556q-41 0 -72 31t-31 72q0 43 31 72.5t72 29.5q43 0 72.5 -29.5t29.5 -72.5q0 -41 -29.5 -72t-72.5 -31zM1063 1229l-305 -434h151v-154h-258l-342 -487h754v-154h-957v154l343 487h-187v154h293l305 434h-754v153h957v-153z" glyph-name="Zdotaccent" unicode="Ż"/><glyph d="M584 1403q43 0 72.5 -30t29.5 -73q0 -41 -29.5 -71.5t-72.5 -30.5q-41 0 -72 31t-31 71q0 43 31 73t72 30zM1040 870l-700 -716h700v-154h-913v154l700 716h-700v154h913v-154z" glyph-name="zdotaccent" unicode="ż"/><glyph d="M522 1505l-198 236h170l90 -117l90 117h170l-199 -236h-123zM1063 1229l-305 -434h151v-154h-258l-342 -487h754v-154h-957v154l343 487h-187v154h293l305 434h-754v153h957v-153z" glyph-name="Zcaron" unicode="Ž"/><glyph d="M645 1147h-123l-198 235h170l90 -116l90 116h170zM1040 870l-700 -716h700v-154h-913v154l700 716h-700v154h913v-154z" glyph-name="zcaron" unicode="ž"/><glyph d="M768 1454q106 0 198.5 -52t149.5 -140l-158 -58q-76 96 -190 96q-100 0 -173 -76.5t-73 -179.5l-4 -69h301v-154h-309l-49 -821q0 -168 -120 -289t-290 -121v154q100 0 173 77t73 179l49 821h-203v154h211l4 69q0 168 120 289t290 121z" glyph-name="florin" unicode="ƒ"/><glyph d="M645 1505h-123l-198 236h170l90 -117l90 117h170zM809 436h-451l-133 -436h-180l449 1382h180l448 -1382h-180zM762 590l-178 586l-178 -586h356z" glyph-name="uni01CD" unicode="Ǎ"/><glyph d="M655 1147h-123l-198 235h170l90 -116l90 116h170zM594 1044q195 0 317.5 -98t122.5 -270v-676h-164v72q-109 -92 -307 -92q-186 0 -308 94t-122 274t122 274.5t308 94.5q199 0 307 -92v51q0 104 -74.5 159.5t-201.5 55.5q-123 0 -193 -45l-168 61q119 137 361 137z M563 133q141 0 224 55.5t83 160t-82.5 159.5t-224.5 55q-266 0 -266 -215t266 -215z" glyph-name="uni01CE" unicode="ǎ"/><glyph d="M645 1505h-123l-198 236h170l90 -117l90 117h170zM666 1229v-1075h378v-154h-921v154h379v1075h-379v153h921v-153h-378z" glyph-name="uni01CF" unicode="Ǐ"/><glyph d="M645 1147h-123l-198 235h170l90 -116l90 116h170zM1044 154v-154h-921v154h379v716h-285l55 154h394v-870h378z" glyph-name="uni01D0" unicode="ǐ"/><glyph d="M649 1505h-123l-198 236h170l90 -117l90 117h170zM588 1403q240 0 368.5 -199.5t128.5 -511t-129 -512t-368 -200.5q-242 0 -374 201.5t-132 510.5t132 510t374 201zM588 1249q-92 0 -162 -49t-107.5 -132t-55 -177t-17.5 -198.5t17.5 -199t55 -178.5t107.5 -133t162 -49 t159.5 49t104.5 133t53.5 178.5t16.5 199t-16.5 198.5t-53.5 177t-104.5 132t-159.5 49z" glyph-name="uni01D1" unicode="Ǒ"/><glyph d="M645 1147h-123l-198 235h170l90 -116l90 116h170zM584 1044q209 0 350 -149.5t141 -382.5t-141 -382.5t-350 -149.5t-350.5 149.5t-141.5 382.5t141.5 382.5t350.5 149.5zM583.5 891q-137.5 0 -232.5 -107.5t-95 -271.5t95 -271.5t232.5 -107.5t232.5 107.5t95 271.5 t-95 271.5t-232.5 107.5z" glyph-name="uni01D2" unicode="ǒ"/><glyph d="M645 1505h-123l-198 236h170l90 -117l90 117h170zM1044 1382v-942q0 -190 -135 -325t-325.5 -135t-325.5 135t-135 325v942h164v-942q0 -123 87 -215t210 -92t210 92t87 215v942h163z" glyph-name="uni01D3" unicode="Ǔ"/><glyph d="M522 1147l-198 235h170l90 -116l90 116h170l-199 -235h-123zM1034 1024v-1024h-164v111q-125 -131 -307 -131q-188 0 -309 133t-121 327v584h164v-584q0 -127 73.5 -217t192.5 -90q123 0 215 92t92 215v584h164z" glyph-name="uni01D4" unicode="ǔ"/><glyph d="M870 1946h-573v153h573v-153zM410 1761q43 0 72.5 -29.5t29.5 -72.5q0 -41 -29.5 -72t-72.5 -31q-41 0 -72 31t-31 72q0 43 31 72.5t72 29.5zM758 1761q43 0 72.5 -29.5t29.5 -72.5q0 -41 -29.5 -72t-72.5 -31q-41 0 -72 31t-31 72q0 43 31 72.5t72 29.5zM1044 1382v-942 q0 -190 -135 -325t-325.5 -135t-325.5 135t-135 325v942h164v-942q0 -123 87 -215t210 -92t210 92t87 215v942h163z" glyph-name="uni01D5" unicode="Ǖ"/><glyph d="M870 1587h-573v154h573v-154zM307 1300q0 43 31 73t72 30q43 0 72.5 -30t29.5 -73q0 -41 -29.5 -71.5t-72.5 -30.5q-41 0 -72 30.5t-31 71.5zM655 1300q0 43 31 73t72 30q43 0 72.5 -30t29.5 -73q0 -41 -29.5 -71.5t-72.5 -30.5q-41 0 -72 30.5t-31 71.5zM1034 1024 v-1024h-164v111q-125 -131 -307 -131q-188 0 -309 133t-121 327v584h164v-584q0 -127 73.5 -217t192.5 -90q123 0 215 92t92 215v584h164z" glyph-name="uni01D6" unicode="ǖ"/><glyph d="M670 1864h-172l198 235h172zM410 1761q43 0 72.5 -29.5t29.5 -72.5q0 -41 -29.5 -72t-72.5 -31q-41 0 -72 31t-31 72q0 43 31 72.5t72 29.5zM758 1761q43 0 72.5 -29.5t29.5 -72.5q0 -41 -29.5 -72t-72.5 -31q-41 0 -72 31t-31 72q0 43 31 72.5t72 29.5zM1044 1382v-942 q0 -190 -135 -325t-325.5 -135t-325.5 135t-135 325v942h164v-942q0 -123 87 -215t210 -92t210 92t87 215v942h163z" glyph-name="uni01D7" unicode="Ǘ"/><glyph d="M670 1505h-172l198 236h172zM410 1198q-41 0 -72 31t-31 71q0 43 31 73t72 30q43 0 72.5 -30t29.5 -73q0 -41 -29.5 -71.5t-72.5 -30.5zM655 1300q0 43 31 73t72 30q43 0 72.5 -30t29.5 -73q0 -41 -29.5 -71.5t-72.5 -30.5q-41 0 -72 30.5t-31 71.5zM1034 1024v-1024 h-164v111q-125 -131 -307 -131q-188 0 -309 133t-121 327v584h164v-584q0 -127 73.5 -217t192.5 -90q123 0 215 92t92 215v584h164z" glyph-name="uni01D8" unicode="ǘ"/><glyph d="M645 1864h-123l-198 235h170l90 -117l90 117h170zM410 1761q43 0 72.5 -29.5t29.5 -72.5q0 -41 -29.5 -72t-72.5 -31q-41 0 -72 31t-31 72q0 43 31 72.5t72 29.5zM758 1761q43 0 72.5 -29.5t29.5 -72.5q0 -41 -29.5 -72t-72.5 -31q-41 0 -72 31t-31 72q0 43 31 72.5 t72 29.5zM1044 1382v-942q0 -190 -135 -325t-325.5 -135t-325.5 135t-135 325v942h164v-942q0 -123 87 -215t210 -92t210 92t87 215v942h163z" glyph-name="uni01D9" unicode="Ǚ"/><glyph d="M522 1505l-198 236h170l90 -117l90 117h170l-199 -236h-123zM410 1198q-41 0 -72 31t-31 71q0 43 31 73t72 30q43 0 72.5 -30t29.5 -73q0 -41 -29.5 -71.5t-72.5 -30.5zM758 1403q43 0 72.5 -30t29.5 -73q0 -41 -29.5 -71.5t-72.5 -30.5q-41 0 -72 31t-31 71q0 43 31 73 t72 30zM1034 1024v-1024h-164v111q-125 -131 -307 -131q-188 0 -309 133t-121 327v584h164v-584q0 -127 73.5 -217t192.5 -90q123 0 215 92t92 215v584h164z" glyph-name="uni01DA" unicode="ǚ"/><glyph d="M670 1864h-172l-199 235h172zM410 1761q43 0 72.5 -29.5t29.5 -72.5q0 -41 -29.5 -72t-72.5 -31q-41 0 -72 31t-31 72q0 43 31 72.5t72 29.5zM758 1761q43 0 72.5 -29.5t29.5 -72.5q0 -41 -29.5 -72t-72.5 -31q-41 0 -72 31t-31 72q0 43 31 72.5t72 29.5zM1044 1382v-942 q0 -190 -135 -325t-325.5 -135t-325.5 135t-135 325v942h164v-942q0 -123 87 -215t210 -92t210 92t87 215v942h163z" glyph-name="uni01DB" unicode="Ǜ"/><glyph d="M498 1505l-199 236h172l199 -236h-172zM410 1403q43 0 72.5 -30t29.5 -73q0 -41 -29.5 -71.5t-72.5 -30.5q-41 0 -72 31t-31 71q0 43 31 73t72 30zM758 1198q-41 0 -72 31t-31 71q0 43 31 73t72 30q43 0 72.5 -30t29.5 -73q0 -41 -29.5 -71.5t-72.5 -30.5zM1034 1024 v-1024h-164v111q-125 -131 -307 -131q-188 0 -309 133t-121 327v584h164v-584q0 -127 73.5 -217t192.5 -90q123 0 215 92t92 215v584h164z" glyph-name="uni01DC" unicode="ǜ"/><glyph d="M313 1034q0 -80 53.5 -131t133.5 -73.5t173 -54.5t173 -67.5t133 -117.5t53 -201q0 -195 -133 -302t-338 -107q-152 0 -268.5 72.5t-157.5 189.5l154 55q23 -74 96.5 -119t175.5 -45q133 0 220 66.5t87 189.5q0 72 -40 120t-103 73.5t-140 46t-153 48.5t-139.5 66.5 t-103 112.5t-39.5 178q0 162 124.5 265.5t307.5 103.5q139 0 241.5 -79t145.5 -210l-152 -55q-18 86 -78.5 138t-156.5 52q-121 0 -195 -65.5t-74 -149.5zM541 -98q43 0 72.5 -30t29.5 -73q0 -18 -8 -43l-68 -186l-78 29l37 100q-37 4 -62.5 32.5t-25.5 67.5q0 43 31 73 t72 30z" glyph-name="Scommaaccent" unicode="Ș"/><glyph d="M598 1044q289 0 373 -229l-154 -55q-23 66 -69 98.5t-150 32.5t-162.5 -41t-58.5 -105q0 -55 65.5 -88.5t158.5 -55t186.5 -51.5t159 -95.5t65.5 -167.5q0 -145 -119 -226t-309 -81q-164 0 -273.5 72.5t-154.5 195.5l153 57q59 -172 275 -172q152 0 208 48t56 106 q0 55 -65.5 89t-159 55.5t-186.5 51t-158.5 96t-65.5 166.5q0 143 104.5 221t280.5 78zM584 -98q43 0 72.5 -30t29.5 -73q0 -18 -8 -43l-68 -186l-78 29l37 100q-37 4 -62.5 32.5t-25.5 67.5q0 43 31 73t72 30z" glyph-name="scommaaccent" unicode="ș"/><glyph d="M1055 1229h-389v-1229h-164v1229h-389v153h942v-153zM584 -98q43 0 72.5 -30t29.5 -73q0 -18 -8 -43l-68 -186l-78 29l37 100q-37 4 -62.5 32.5t-25.5 67.5q0 43 31 73t72 30z" glyph-name="uni021A" unicode="Ț"/><glyph d="M915 229l158 -57q-57 -88 -149.5 -140t-198.5 -52q-168 0 -288 119.5t-120 289.5v432h-235v154h235v399l164 60v-459h420v-154h-420v-432q0 -102 72 -179t172 -77q114 0 190 96zM725 -98q43 0 72.5 -30t29.5 -73q0 -18 -8 -43l-67 -186l-78 29l37 100q-37 4 -62.5 32.5 t-25.5 67.5q0 43 30.5 73t71.5 30z" glyph-name="uni021B" unicode="ț"/><glyph d="M823 1147h-170l-90 117l-90 -117h-170l199 235h123z" glyph-name="circumflex" unicode="ˆ"/><glyph d="M471 1147h-123l-198 235h169l91 -116l90 116h170z" glyph-name="caron" unicode="ˇ"/><glyph d="M471 1382h123q0 -100 -71.5 -172.5t-174 -72.5t-174.5 72.5t-72 172.5h123q0 -49 37 -85.5t86 -36.5q51 0 87 36.5t36 85.5z" glyph-name="breve" unicode="˘"/><glyph d="M225 1403q43 0 73 -30t30 -73q0 -41 -30 -71.5t-73 -30.5q-41 0 -71.5 31t-30.5 71q0 43 30.5 73t71.5 30z" glyph-name="dotaccent" unicode="˙"/><glyph d="M307 1556q84 0 144.5 -60t60.5 -144t-60.5 -144.5t-144.5 -60.5t-144.5 60.5t-60.5 144.5t60.5 144t144.5 60zM307 1454q-41 0 -71.5 -29.5t-30.5 -72.5q0 -41 30.5 -72t71.5 -31q43 0 73 31t30 72q0 43 -30 72.5t-73 29.5z" glyph-name="ring" unicode="˚"/><glyph d="M201 0h164q-31 0 -49.5 -27.5t-22.5 -53t-2 -48.5q4 -53 40 -90t87 -37q47 0 85 30.5t46 75.5l94 -106q-39 -76 -129 -113q-45 -16 -96 -16q-106 0 -180 74.5t-74 181.5q0 80 37 129z" glyph-name="ogonek" unicode="˛"/><glyph d="M729 1403l123 -103q-63 -106 -199 -106q-70 0 -143.5 37t-91.5 37q-31 0 -53.5 -21.5t-22.5 -52.5l-123 102q68 106 199 107q70 0 143.5 -37t91.5 -37q33 0 54.5 21.5t21.5 52.5z" glyph-name="tilde" unicode="˜"/><glyph d="M371 1147h-172l198 235h172zM659 1147h-172l199 235h172z" glyph-name="hungarumlaut" unicode="˝"/><glyph d="M563 -98q43 0 73 -30t30 -73q0 -18 -9 -43l-67 -186l-78 29l37 100q-37 4 -62.5 32.5t-25.5 67.5q0 43 30.5 73t71.5 30z" glyph-name="uni0326" horiz-adv-x="0" unicode="̦"/><glyph d="M1112 0h-1036l428 1382h180zM889 154l-295 1022l-293 -1022h588z" glyph-name="Delta" unicode="Δ"/><glyph d="M588 1403q240 0 368.5 -199.5t128.5 -511.5q0 -342 -147 -538h147v-154h-360l-31 154q119 49 173.5 199.5t54.5 338.5q0 104 -16.5 198.5t-53.5 177.5t-104.5 132t-159.5 49t-162 -49t-107.5 -132t-55 -177t-17.5 -199q0 -188 56 -338.5t177 -199.5l-30 -154h-347v154 h131q-152 199 -151 538q0 309 132 510t374 201z" glyph-name="Omega" unicode="Ω"/><glyph d="M1034 1024v-1024h-164v111q-125 -131 -307 -131q-152 0 -266 94v-484h-164v1434h164v-584q0 -127 73.5 -217t192.5 -90q123 0 215 92t92 215v584h164z" glyph-name="mu" unicode="μ"/><glyph d="M940 870v-757q25 -88 96 -113h-223q-27 51 -37 113v757h-350v-870h-164v870h-160v154h983v-154h-145z" glyph-name="pi" unicode="π"/><glyph d="M670 1505h-172l-199 236h172zM856 0h-168l-104 657l-105 -657h-170l-243 1382h170l159 -1013l107 678h164l106 -678l160 1013h168z" glyph-name="Wgrave" unicode="Ẁ"/><glyph d="M670 1147h-172l-199 235h172zM856 0h-164l-108 637l-109 -637h-164l-202 1024h163l123 -655l80 473h217l80 -473l123 655h162z" glyph-name="wgrave" unicode="ẁ"/><glyph d="M670 1505h-172l198 236h172zM856 0h-168l-104 657l-105 -657h-170l-243 1382h170l159 -1013l107 678h164l106 -678l160 1013h168z" glyph-name="Wacute" unicode="Ẃ"/><glyph d="M670 1147h-172l198 235h172zM856 0h-164l-108 637l-109 -637h-164l-202 1024h163l123 -655l80 473h217l80 -473l123 655h162z" glyph-name="wacute" unicode="ẃ"/><glyph d="M410 1761q43 0 72.5 -29.5t29.5 -72.5q0 -41 -29.5 -72t-72.5 -31q-41 0 -72 31t-31 72q0 43 31 72.5t72 29.5zM758 1761q43 0 72.5 -29.5t29.5 -72.5q0 -41 -29.5 -72t-72.5 -31q-41 0 -72 31t-31 72q0 43 31 72.5t72 29.5zM856 0h-168l-104 657l-105 -657h-170 l-243 1382h170l159 -1013l107 678h164l106 -678l160 1013h168z" glyph-name="Wdieresis" unicode="Ẅ"/><glyph d="M410 1403q43 0 72.5 -30t29.5 -73q0 -41 -29.5 -71.5t-72.5 -30.5q-41 0 -72 31t-31 71q0 43 31 73t72 30zM758 1403q43 0 72.5 -30t29.5 -73q0 -41 -29.5 -71.5t-72.5 -30.5q-41 0 -72 31t-31 71q0 43 31 73t72 30zM856 0h-164l-108 637l-109 -637h-164l-202 1024h163 l123 -655l80 473h217l80 -473l123 655h162z" glyph-name="wdieresis" unicode="ẅ"/><glyph d="M670 1505h-172l-199 236h172zM1057 1382l-391 -798v-584h-164v584l-391 798h188l285 -620l284 620h189z" glyph-name="Ygrave" unicode="Ỳ"/><glyph d="M498 1147l-199 235h172l199 -235h-172zM1057 1024l-391 -1024v-350l-164 -60v410l-391 1024h182l291 -836l290 836h183z" glyph-name="ygrave" unicode="ỳ"/><glyph d="M993 436h-819v154h819v-154z" glyph-name="endash" unicode="–"/><glyph d="M1096 436h-1024v154h1024v-154z" glyph-name="emdash" unicode="—"/><glyph d="M647 1374l-37 -100q37 -4 62.5 -33t25.5 -67q0 -43 -30.5 -73t-71.5 -30q-43 0 -72.5 29.5t-29.5 73.5q0 18 8 43l67 186z" glyph-name="quoteleft" unicode="‘"/><glyph d="M563 1403q43 0 73 -30t30 -73q0 -18 -9 -43l-67 -186l-78 29l37 100q-37 4 -62.5 33t-25.5 67q0 43 30.5 73t71.5 30z" glyph-name="quoteright" unicode="’"/><glyph d="M584 184q43 0 72.5 -30.5t29.5 -71.5q0 -27 -6 -45l-70 -189l-78 29l37 103q-37 4 -62.5 33.5t-25.5 68.5q0 41 31 71.5t72 30.5z" glyph-name="quotesinglbase" unicode="‚"/><glyph d="M471 1374l-37 -100q37 -4 62.5 -33t25.5 -67q0 -43 -30.5 -73t-71.5 -30q-43 0 -73 29.5t-30 73.5q0 18 9 43l67 186zM799 1374l-37 -100q37 -4 62.5 -33t25.5 -67q0 -43 -31 -73t-71 -30q-43 0 -73 29.5t-30 73.5q0 18 8 43l68 186z" glyph-name="quotedblleft" unicode="“"/><glyph d="M420 1403q43 0 72.5 -30t29.5 -73q0 -18 -8 -43l-68 -186l-77 29l37 100q-37 4 -63 33t-26 67q0 43 31 73t72 30zM748 1403q43 0 72.5 -30t29.5 -73q0 -18 -8 -43l-68 -186l-78 29l37 100q-37 4 -62.5 33t-25.5 67q0 43 31 73t72 30z" glyph-name="quotedblright" unicode="”"/><glyph d="M584 184q43 0 72.5 -30.5t29.5 -71.5q0 -27 -6 -45l-70 -189l-78 29l37 103q-37 4 -62.5 33.5t-25.5 68.5q0 41 31 71.5t72 30.5z" glyph-name="quotedblbase" unicode="„"/><glyph d="M901 842h-215v-1026h-164v1026h-256v153h256v379l164 60v-439h215v-153z" glyph-name="dagger" unicode="†"/><glyph d="M686 842v-224h215v-153h-215v-649h-164v649h-256v153h256v224h-256v153h256v379l164 60v-439h215v-153h-215z" glyph-name="daggerdbl" unicode="‡"/><glyph d="M584 922q84 0 144 -60.5t60 -144.5t-60 -144.5t-144 -60.5t-144.5 60.5t-60.5 144.5t60.5 144.5t144.5 60.5z" glyph-name="bullet" unicode="•"/><glyph d="M276 184q43 0 73 -29.5t30 -72.5t-30 -72.5t-73 -29.5q-41 0 -71.5 29.5t-30.5 72.5t30.5 72.5t71.5 29.5zM604 184q43 0 73 -29.5t30 -72.5t-30 -72.5t-73 -29.5q-41 0 -71.5 29.5t-30.5 72.5t30.5 72.5t71.5 29.5zM932 184q43 0 72.5 -29.5t29.5 -72.5t-29.5 -72.5 t-72.5 -29.5q-41 0 -72 29.5t-31 72.5t31 72.5t72 29.5z" glyph-name="ellipsis" unicode="…"/><glyph d="M1069 1403l-856 -1485l-137 82l858 1485zM301 1372q106 0 182 -75.5t76 -182t-75.5 -180.5t-182.5 -74q-104 0 -180 75t-76 179q0 106 76 182t180 76zM303 1239q-45 0 -77.5 -38t-32.5 -85t32.5 -85t77.5 -38q43 0 77 38t34 85q0 45 -34 84t-77 39zM682 399 q41 0 71.5 -30.5t30.5 -71.5q0 -43 -30.5 -72.5t-71.5 -29.5q-43 0 -72.5 29.5t-29.5 72.5q0 41 29.5 71.5t72.5 30.5zM967 399q43 0 73.5 -30.5t30.5 -71.5q0 -43 -30.5 -72.5t-73.5 -29.5q-41 0 -71 29.5t-30 72.5q0 41 30 71.5t71 30.5zM682 346q-18 0 -31.5 -15.5 t-13.5 -33.5t13.5 -33.5t31.5 -15.5t31.5 15.5t13.5 33.5t-13.5 33.5t-31.5 15.5zM969 346q-18 0 -31.5 -15.5t-13.5 -33.5t13 -33.5t32 -15.5q16 0 29.5 15.5t13.5 33.5t-13.5 33.5t-29.5 15.5z" glyph-name="perthousand" unicode="‰"/><glyph d="M989 825l-676 -313l676 -322v-163l-811 376v218l811 376v-172z" glyph-name="guilsinglleft" unicode="‹"/><glyph d="M989 621v-218l-811 -376v172l676 313l-676 322v163z" glyph-name="guilsinglright" unicode="›"/><glyph d="M272 0h-182l799 1382h182z" glyph-name="fraction" unicode="⁄"/><glyph d="M631 133q123 0 197.5 126t93.5 312l157 -57q-33 -238 -152.5 -386t-295.5 -148q-168 0 -274.5 128t-145.5 345h-143l67 153h58q-2 29 -3 86q0 66 3 96h-125l67 154h78q39 211 145.5 336t272.5 125q176 0 294.5 -147.5t153.5 -385.5l-157 -57q-18 186 -92 311t-199 125 q-197 0 -256 -307h430l-68 -154h-381q-2 -33 -2 -96q0 -57 2 -86h449l-68 -153h-364q59 -320 258 -320z" glyph-name="Euro" unicode="€"/><glyph d="M839.5 1403q104.5 0 175 -75t70.5 -191.5t-70.5 -191.5t-175 -75t-175 75t-70.5 191.5t70.5 191.5t175 75zM545 690h-82l-299 533v-533h-82v692h82l299 -532v532h82v-692zM840 1327q-70 0 -117 -54t-47 -136t47 -135.5t117 -53.5q68 0 116 54.5t48 134.5q0 82 -48 136 t-116 54zM1053 731h-432v66h432v-66z" glyph-name="afii61352" unicode="№"/><glyph d="M551 1374h-152v-475h-61v475h-152v60h365v-60zM952 899h-63v322l-80 -267h-66l-84 279v-334h-63v535h66l114 -398l113 398h63v-535z" glyph-name="trademark" unicode="™"/><glyph d="M403 829v62h168v430h-94l-22 61h182v-491h131v-62h-365zM1065 717v-62h-963v62h963zM655 307q86 -53 86 -143q0 -70 -51 -121t-121 -51q-55 0 -100 31.5t-63 82.5l61 21q29 -74 102 -74q43 0 75 33t32 78t-32 77.5t-75 32.5h-26v62h26q33 0 56.5 25.5t23.5 60.5 t-23.5 59.5t-56 24.5t-57.5 -24.5t-25 -59.5h-65q0 59 43 102t104 43q59 0 102.5 -43t43.5 -102q-1 -64 -60 -115z" glyph-name="onethird" horiz-adv-x="1228" unicode="⅓"/><glyph d="M584 1321q-92 0 -125 -86l-62 25q45 123 187 122q76 0 127 -47t51 -125q0 -68 -45 -110.5t-98.5 -60t-100.5 -56.5t-49 -100h285v-62h-348v62q0 76 46 126t100 68.5t100 54t46 87.5q0 49 -33.5 75.5t-80.5 26.5zM1065 717v-62h-963v62h963zM655 307q86 -53 86 -143 q0 -70 -51 -121t-121 -51q-55 0 -100 31.5t-63 82.5l61 21q29 -74 102 -74q43 0 75 33t32 78t-32 77.5t-75 32.5h-26v62h26q33 0 56.5 25.5t23.5 60.5t-23.5 59.5t-56 24.5t-57.5 -24.5t-25 -59.5h-65q0 59 43 102t104 43q59 0 102.5 -43t43.5 -102q-1 -64 -60 -115z" glyph-name="twothirds" horiz-adv-x="1228" unicode="⅔"/><glyph d="M1044 436h-421v-174l-500 250l500 250v-172h421v-154z" glyph-name="arrowleft" unicode="←"/><glyph d="M662 473v-422h-154v422h-174l250 500l250 -500h-172z" glyph-name="arrowup" unicode="↑"/><glyph d="M545 262v172h-422v154h422v174l499 -250z" glyph-name="arrowright" unicode="→"/><glyph d="M834 551l-250 -500l-250 500h172v422h153v-422h175z" glyph-name="arrowdown" unicode="↓"/><glyph d="M713 1403q156 0 260 -103.5t104 -255.5q0 -29 -84 -618q-27 -186 -174 -316t-332 -130q-172 0 -284.5 113.5t-112.5 281.5q0 59 19.5 125.5t60.5 134t99.5 122t144.5 89.5t184 35q164 0 276 -107q37 231 37 262q0 88 -57 150.5t-145 62.5q-119 0 -209 -100l-156 65 q68 88 166.5 138.5t202.5 50.5zM494 133q133 0 236.5 103.5t103.5 244.5q0 104 -69 175t-171 71q-135 0 -237.5 -103.5t-102.5 -244.5q0 -106 68 -176t172 -70z" glyph-name="partialdiff" unicode="∂"/><glyph d="M1065 1229h-164v-1229h-164v1229h-307v-1229h-164v1229h-164v153h963v-153z" glyph-name="product" unicode="∏"/><glyph d="M1032 1280h-708l444 -768l-444 -768h708v-154h-897v154l449 768l-449 768v154h897v-154z" glyph-name="summation" unicode="∑"/><glyph d="M1028 436h-889v154h889v-154z" glyph-name="minus" unicode="−"/><glyph d="M569 0h-176l-315 811h176l227 -614l434 1185h177z" glyph-name="radical" unicode="√"/><glyph d="M811 897q125 0 215 -86t90 -219t-90 -219t-215 -86q-72 0 -131 41t-94 98q-92 -139 -230 -139q-125 0 -215 86t-90 219t90 219t215 86q129 0 222 -143q35 59 96 101t137 42zM356 440q113 0 168 148q-63 156 -168 155q-57 0 -99 -42t-42 -109.5t42 -109.5t99 -42zM811 440 q57 0 99 42t42 109.5t-42 109.5t-99 42q-51 0 -98 -46t-70 -113q23 -61 71 -102.5t97 -41.5z" glyph-name="infinity" unicode="∞"/><glyph d="M471 0l61 1044q0 168 121 289t289 121v-154q-100 0 -173 -76.5t-73 -179.5l-61 -1044q0 -168 -121 -289t-289 -121v154q100 0 173 77t73 179z" glyph-name="integral" unicode="∫"/><glyph d="M786 803q78 -20 114 -88t13 -148l-114 37q12 57 -45 74q-37 10 -92 -45q-8 -6 -33 -32t-33 -33t-29.5 -25.5t-32 -24.5t-31 -16t-35.5 -11.5t-36.5 -1.5t-44.5 7q-80 23 -118 94.5t-15 152.5l117 -38q-16 -63 51 -82q39 -10 98 49q98 98 142 121q58 28 124 10zM786 510 q78 -20 114 -89t13 -149l-114 39q12 57 -45 74q-37 10 -92 -45l-37 -37t-38 -37t-33 -27.5t-39 -25.5t-35.5 -12t-45 -6t-47.5 8q-80 20 -118 92t-15 156l117 -39q-16 -66 51 -82q37 -10 98 47q61 63 88 86.5t76 42t102 4.5z" glyph-name="approxequal" unicode="≈"/><glyph d="M741 705l-120 -334h397v-154h-455l-78 -217h-176l80 217h-239v154h294l121 334h-415v153h473l59 166h174l-59 -166h221v-153h-277z" glyph-name="notequal" unicode="≠"/><glyph d="M989 825l-676 -313l676 -322v-163l-811 376v218l811 376v-172zM981 -233h-793v153h793v-153z" glyph-name="lessequal" unicode="≤"/><glyph d="M989 621v-218l-811 -376v172l676 313l-676 322v163zM981 -233h-793v153h793v-153z" glyph-name="greaterequal" unicode="≥"/><glyph d="M1096 512l-512 -512l-512 512l512 512zM236 512l348 -348l348 348l-348 348z" glyph-name="lozenge" unicode="◊"/><glyph d="M1038 588l80 -80l-96 -96l-119 120l-96 -96l156 -155l-97 -95l-82 82l-94 -96l-194 195l-97 -97l-313 314l96 96l-112 113l96 94l104 -105l97 95l-70 71l94 94l72 -69l94 96l61 -61l97 94l-62 61l97 97l348 -349l-97 -96l134 -131zM840 578v30q-2 2 -20.5 10.5 t-60.5 21.5t-91 22q-219 41 -373 -52v-32q158 94 367 57q47 -8 91 -22.5t66 -24.5z" glyph-name="uniF8FF" horiz-adv-x="1228" unicode=""/><glyph d="M584 1403q43 0 72.5 -30t29.5 -73q0 -41 -29.5 -71.5t-72.5 -30.5q-41 0 -72 31t-31 71q0 43 31 73t72 30zM1044 154v-154h-921v154h379v716h-285l55 154h394v-870h378z" glyph-name="i.aalt"/><glyph d="M1075 1024v-1024h-164v121q-125 -141 -327 -141q-209 0 -350.5 149.5t-141.5 382.5t141.5 382.5t350.5 149.5q203 0 327 -141v121h164zM583.5 133q137.5 0 232.5 107.5t95 271.5t-95 271.5t-232.5 107.5t-232.5 -107.5t-95 -271.5t95 -271.5t232.5 -107.5z" glyph-name="a.salt"/><glyph d="M670 1147h-172l198 235h172zM1075 1024v-1024h-164v121q-125 -141 -327 -141q-209 0 -350.5 149.5t-141.5 382.5t141.5 382.5t350.5 149.5q203 0 327 -141v121h164zM583.5 133q137.5 0 232.5 107.5t95 271.5t-95 271.5t-232.5 107.5t-232.5 -107.5t-95 -271.5t95 -271.5 t232.5 -107.5z" glyph-name="aacute.aalt"/><glyph d="M583.5 1137q-100.5 0 -173 72.5t-72.5 172.5h123q0 -49 37 -85.5t86 -36.5q51 0 87 36.5t36 85.5h122q0 -100 -72.5 -172.5t-173 -72.5zM1075 1024v-1024h-164v121q-125 -141 -327 -141q-209 0 -350.5 149.5t-141.5 382.5t141.5 382.5t350.5 149.5q203 0 327 -141v121 h164zM583.5 133q137.5 0 232.5 107.5t95 271.5t-95 271.5t-232.5 107.5t-232.5 -107.5t-95 -271.5t95 -271.5t232.5 -107.5z" glyph-name="abreve.aalt"/><glyph d="M522 1147l-198 235h170l90 -116l90 116h170l-199 -235h-123zM1075 1024v-1024h-164v121q-125 -141 -327 -141q-209 0 -350.5 149.5t-141.5 382.5t141.5 382.5t350.5 149.5q203 0 327 -141v121h164zM583.5 133q137.5 0 232.5 107.5t95 271.5t-95 271.5t-232.5 107.5 t-232.5 -107.5t-95 -271.5t95 -271.5t232.5 -107.5z" glyph-name="uni01CE.aalt"/><glyph d="M410 1198q-41 0 -72 31t-31 71q0 43 31 73t72 30q43 0 72.5 -30t29.5 -73q0 -41 -29.5 -71.5t-72.5 -30.5zM758 1198q-41 0 -72 31t-31 71q0 43 31 73t72 30q43 0 72.5 -30t29.5 -73q0 -41 -29.5 -71.5t-72.5 -30.5zM1075 1024v-1024h-164v121q-125 -141 -327 -141 q-209 0 -350.5 149.5t-141.5 382.5t141.5 382.5t350.5 149.5q203 0 327 -141v121h164zM583.5 133q137.5 0 232.5 107.5t95 271.5t-95 271.5t-232.5 107.5t-232.5 -107.5t-95 -271.5t95 -271.5t232.5 -107.5z" glyph-name="adieresis.aalt"/><glyph d="M498 1147l-199 235h172l199 -235h-172zM1075 1024v-1024h-164v121q-125 -141 -327 -141q-209 0 -350.5 149.5t-141.5 382.5t141.5 382.5t350.5 149.5q203 0 327 -141v121h164zM583.5 133q137.5 0 232.5 107.5t95 271.5t-95 271.5t-232.5 107.5t-232.5 -107.5t-95 -271.5 t95 -271.5t232.5 -107.5z" glyph-name="agrave.aalt"/><glyph d="M870 1229h-573v153h573v-153zM1075 1024v-1024h-164v121q-125 -141 -327 -141q-209 0 -350.5 149.5t-141.5 382.5t141.5 382.5t350.5 149.5q203 0 327 -141v121h164zM583.5 133q137.5 0 232.5 107.5t95 271.5t-95 271.5t-232.5 107.5t-232.5 -107.5t-95 -271.5t95 -271.5 t232.5 -107.5z" glyph-name="amacron.aalt"/><glyph d="M1260 -150l94 -106q-39 -76 -129 -113q-45 -16 -97 -16q-106 0 -180 74.5t-74 181.5q0 80 37 129v121q-125 -141 -327 -141q-209 0 -350.5 149.5t-141.5 382.5t141.5 382.5t350.5 149.5q203 0 327 -141v121h164v-1024q-31 0 -49 -27.5t-22.5 -53t-2.5 -48.5q4 -53 40 -90 t87 -37q47 0 85.5 30.5t46.5 75.5zM583.5 133q137.5 0 232.5 107.5t95 271.5t-95 271.5t-232.5 107.5t-232.5 -107.5t-95 -271.5t95 -271.5t232.5 -107.5z" glyph-name="aogonek.aalt"/><glyph d="M584 1147q-84 0 -144.5 60.5t-60.5 144.5t60.5 144t144.5 60t144 -60t60 -144t-60 -144.5t-144 -60.5zM584 1454q-41 0 -72 -29.5t-31 -72.5q0 -41 31 -72t72 -31q43 0 72.5 31t29.5 72q0 43 -29.5 72.5t-72.5 29.5zM1075 1024v-1024h-164v121q-125 -141 -327 -141 q-209 0 -350.5 149.5t-141.5 382.5t141.5 382.5t350.5 149.5q203 0 327 -141v121h164zM583.5 133q137.5 0 232.5 107.5t95 271.5t-95 271.5t-232.5 107.5t-232.5 -107.5t-95 -271.5t95 -271.5t232.5 -107.5z" glyph-name="aring.aalt"/><glyph d="M465 1268q-31 0 -53.5 -21.5t-22.5 -52.5l-123 102q66 106 199 107q70 0 143.5 -37t91.5 -37q33 0 54.5 21.5t21.5 52.5l123 -103q-63 -106 -199 -106q-70 0 -143.5 37t-91.5 37zM1075 1024v-1024h-164v121q-125 -141 -327 -141q-209 0 -350.5 149.5t-141.5 382.5 t141.5 382.5t350.5 149.5q203 0 327 -141v121h164zM583.5 133q137.5 0 232.5 107.5t95 271.5t-95 271.5t-232.5 107.5t-232.5 -107.5t-95 -271.5t95 -271.5t232.5 -107.5z" glyph-name="atilde.aalt"/><glyph d="M1075 1024v-922q0 -233 -141 -382.5t-350 -149.5q-135 0 -248 67.5t-178 186.5l155 57q98 -158 271 -157q137 0 232 107.5t95 270.5v19q-125 -141 -327 -141q-209 0 -350.5 149.5t-141.5 382.5t141.5 382.5t350.5 149.5q203 0 327 -141v121h164zM583.5 133 q137.5 0 232.5 107.5t95 271.5t-95 271.5t-232.5 107.5t-232.5 -107.5t-95 -271.5t95 -271.5t232.5 -107.5z" glyph-name="g.aalt"/><glyph d="M583.5 1137q-100.5 0 -173 72.5t-72.5 172.5h123q0 -49 37 -85.5t86 -36.5q51 0 87 36.5t36 85.5h122q0 -100 -72.5 -172.5t-173 -72.5zM1075 1024v-922q0 -233 -141 -382.5t-350 -149.5q-135 0 -248 67.5t-178 186.5l155 57q98 -158 271 -157q137 0 232 107.5t95 270.5 v19q-125 -141 -327 -141q-209 0 -350.5 149.5t-141.5 382.5t141.5 382.5t350.5 149.5q203 0 327 -141v121h164zM583.5 133q137.5 0 232.5 107.5t95 271.5t-95 271.5t-232.5 107.5t-232.5 -107.5t-95 -271.5t95 -271.5t232.5 -107.5z" glyph-name="gbreve.aalt"/><glyph d="M586 1174q-43 0 -73 29.5t-30 72.5q0 18 9 43l67 186l78 -28l-37 -101q37 -4 62.5 -32.5t25.5 -67.5q0 -43 -30.5 -72.5t-71.5 -29.5zM1075 1024v-922q0 -233 -141 -382.5t-350 -149.5q-135 0 -248 67.5t-178 186.5l155 57q98 -158 271 -157q137 0 232 107.5t95 270.5v19 q-125 -141 -327 -141q-209 0 -350.5 149.5t-141.5 382.5t141.5 382.5t350.5 149.5q203 0 327 -141v121h164zM583.5 133q137.5 0 232.5 107.5t95 271.5t-95 271.5t-232.5 107.5t-232.5 -107.5t-95 -271.5t95 -271.5t232.5 -107.5z" glyph-name="gcommaaccent.aalt"/><glyph d="M584 1198q-41 0 -72 31t-31 71q0 43 31 73t72 30q43 0 72.5 -30t29.5 -73q0 -41 -29.5 -71.5t-72.5 -30.5zM1075 1024v-922q0 -233 -141 -382.5t-350 -149.5q-135 0 -248 67.5t-178 186.5l155 57q98 -158 271 -157q137 0 232 107.5t95 270.5v19q-125 -141 -327 -141 q-209 0 -350.5 149.5t-141.5 382.5t141.5 382.5t350.5 149.5q203 0 327 -141v121h164zM583.5 133q137.5 0 232.5 107.5t95 271.5t-95 271.5t-232.5 107.5t-232.5 -107.5t-95 -271.5t95 -271.5t232.5 -107.5z" glyph-name="gdotaccent.aalt"/><glyph d="M1034 1024v-993q0 -190 -140 -325.5t-331 -135.5q-135 0 -238.5 72.5t-154.5 193.5l154 55q33 -76 94 -121.5t145 -45.5q123 0 215 92t92 215v80q-125 -131 -307 -131q-188 0 -309 133t-121 327v584h164v-584q0 -127 73.5 -217t192.5 -90q123 0 215 92t92 215v584h164z " glyph-name="y.aalt"/><glyph d="M670 1147h-172l198 235h172zM1034 1024v-993q0 -190 -140 -325.5t-331 -135.5q-135 0 -238.5 72.5t-154.5 193.5l154 55q33 -76 94 -121.5t145 -45.5q123 0 215 92t92 215v80q-125 -131 -307 -131q-188 0 -309 133t-121 327v584h164v-584q0 -127 73.5 -217t192.5 -90 q123 0 215 92t92 215v584h164z" glyph-name="yacute.aalt"/><glyph d="M844 1147h-170l-90 117l-90 -117h-170l198 235h123zM1034 1024v-993q0 -190 -140 -325.5t-331 -135.5q-135 0 -238.5 72.5t-154.5 193.5l154 55q33 -76 94 -121.5t145 -45.5q123 0 215 92t92 215v80q-125 -131 -307 -131q-188 0 -309 133t-121 327v584h164v-584 q0 -127 73.5 -217t192.5 -90q123 0 215 92t92 215v584h164z" glyph-name="ycircumflex.aalt"/><glyph d="M410 1403q43 0 72.5 -30t29.5 -73q0 -41 -29.5 -71.5t-72.5 -30.5q-41 0 -72 31t-31 71q0 43 31 73t72 30zM758 1403q43 0 72.5 -30t29.5 -73q0 -41 -29.5 -71.5t-72.5 -30.5q-41 0 -72 31t-31 71q0 43 31 73t72 30zM1034 1024v-993q0 -190 -140 -325.5t-331 -135.5 q-135 0 -238.5 72.5t-154.5 193.5l154 55q33 -76 94 -121.5t145 -45.5q123 0 215 92t92 215v80q-125 -131 -307 -131q-188 0 -309 133t-121 327v584h164v-584q0 -127 73.5 -217t192.5 -90q123 0 215 92t92 215v584h164z" glyph-name="ydieresis.aalt"/><glyph d="M670 1147h-172l-199 235h172zM1034 1024v-993q0 -190 -140 -325.5t-331 -135.5q-135 0 -238.5 72.5t-154.5 193.5l154 55q33 -76 94 -121.5t145 -45.5q123 0 215 92t92 215v80q-125 -131 -307 -131q-188 0 -309 133t-121 327v584h164v-584q0 -127 73.5 -217t192.5 -90 q123 0 215 92t92 215v584h164z" glyph-name="ygrave.aalt"/></font>
</defs>
</svg>
