<svg xmlns="http://www.w3.org/2000/svg" width="24" height="24" viewBox="0 0 24 24">
  <path fill="#000000" d="M2,5.99253976 C2,3.79136046 3.79678532,2 5.99253976,2 L18.0074602,2 C20.2086395,2 22,3.79678532 22,5.99253976 L22,18.0074602 C22,20.2086395 20.2032147,22 18.0074602,22 L5.99253976,22 C3.79136046,22 2,20.2032147 2,18.0074602 L2,5.99253976 Z M4,5.99253976 L4,18.0074602 C4,19.0999967 4.89728601,20 5.99253976,20 L18.0074602,20 C19.0999967,20 20,19.102714 20,18.0074602 L20,5.99253976 C20,4.9000033 19.102714,4 18.0074602,4 L5.99253976,4 C4.9000033,4 4,4.89728601 4,5.99253976 Z M7,7 L10,7 C10.5522847,7 11,7.44771525 11,8 L11,11 C11,11.5522847 10.5522847,12 10,12 L7,12 C6.44771525,12 6,11.5522847 6,11 L6,8 C6,7.44771525 6.44771525,7 7,7 Z M8,10 L9,10 L9,9 L8,9 L8,10 Z M13,9 C12.4477153,9 12,8.55228475 12,8 C12,7.44771525 12.4477153,7 13,7 L17,7 C17.5522847,7 18,7.44771525 18,8 C18,8.55228475 17.5522847,9 17,9 L13,9 Z M13,12 C12.4477153,12 12,11.5522847 12,11 C12,10.4477153 12.4477153,10 13,10 L17,10 C17.5522847,10 18,10.4477153 18,11 C18,11.5522847 17.5522847,12 17,12 L13,12 Z M7,15 C6.44771525,15 6,14.5522847 6,14 C6,13.4477153 6.44771525,13 7,13 L17,13 C17.5522847,13 18,13.4477153 18,14 C18,14.5522847 17.5522847,15 17,15 L7,15 Z M7,18 C6.44771525,18 6,17.5522847 6,17 C6,16.4477153 6.44771525,16 7,16 L17,16 C17.5522847,16 18,16.4477153 18,17 C18,17.5522847 17.5522847,18 17,18 L7,18 Z"/>
</svg>
