<?xml version="1.0" encoding="UTF-8"?>
<svg width="24px" height="24px" viewBox="0 0 24 24" version="1.1" xmlns="http://www.w3.org/2000/svg" xmlns:xlink="http://www.w3.org/1999/xlink">
    <!-- Generator: Sketch 43.2 (39069) - http://www.bohemiancoding.com/sketch -->
    <title>envelope</title>
    <desc>Created with Sketch.</desc>
    <defs></defs>
    <g id="export" stroke="none" stroke-width="1" fill="none" fill-rule="evenodd">
        <g id="envelope" fill="#000000" fill-rule="nonzero">
            <path d="M4.00161038,7.92275755 L11.4398731,10.9151912 C11.7198968,11.0278456 12.2779972,11.0286928 12.5601269,10.9151912 L19.9984226,7.92274427 C19.956428,6.85170553 19.0811956,6 18.0074602,6 L5.99253976,6 C4.92754594,6 4.0442361,6.85772769 4.00161038,7.92275755 Z M20,10.0778903 L13.3065902,12.7706676 C12.5444594,13.0772749 11.451416,13.0756156 10.6934098,12.7706676 L4,10.0778903 L4,15.9966488 C4,17.1052427 4.8920015,18 5.99253976,18 L18.0074602,18 C19.0991905,18 20,17.0986656 20,15.9966488 L20,10.0778903 Z M2,8.00335124 C2,5.79702563 3.79597912,4 5.99253976,4 L18.0074602,4 C20.2139514,4 22,5.79156652 22,8.00335124 L22,15.9966488 C22,18.2029744 20.2040209,20 18.0074602,20 L5.99253976,20 C3.78604858,20 2,18.2084335 2,15.9966488 L2,8.00335124 Z"></path>
        </g>
    </g>
</svg>